<?xml version="1.0" standalone="no"?>
<svg xmlns="http://www.w3.org/2000/svg" width="500" height="500"><defs><clipPath id="clip-path-dot-color"><circle cx="15.5" cy="87.5" r="4.5" transform="rotate(0,15.5,87.5)"/><circle cx="15.5" cy="114.5" r="4.5" transform="rotate(0,15.5,114.5)"/><circle cx="15.5" cy="123.5" r="4.5" transform="rotate(0,15.5,123.5)"/><circle cx="15.5" cy="141.5" r="4.5" transform="rotate(0,15.5,141.5)"/><circle cx="15.5" cy="186.5" r="4.5" transform="rotate(0,15.5,186.5)"/><circle cx="15.5" cy="204.5" r="4.5" transform="rotate(0,15.5,204.5)"/><circle cx="15.5" cy="213.5" r="4.5" transform="rotate(0,15.5,213.5)"/><circle cx="15.5" cy="231.5" r="4.5" transform="rotate(0,15.5,231.5)"/><circle cx="15.5" cy="249.5" r="4.5" transform="rotate(0,15.5,249.5)"/><circle cx="15.5" cy="267.5" r="4.5" transform="rotate(0,15.5,267.5)"/><circle cx="15.5" cy="285.5" r="4.5" transform="rotate(0,15.5,285.5)"/><circle cx="15.5" cy="294.5" r="4.5" transform="rotate(0,15.5,294.5)"/><circle cx="15.5" cy="303.5" r="4.5" transform="rotate(0,15.5,303.5)"/><circle cx="15.5" cy="312.5" r="4.5" transform="rotate(0,15.5,312.5)"/><circle cx="15.5" cy="321.5" r="4.5" transform="rotate(0,15.5,321.5)"/><circle cx="15.5" cy="339.5" r="4.5" transform="rotate(0,15.5,339.5)"/><circle cx="15.5" cy="348.5" r="4.5" transform="rotate(0,15.5,348.5)"/><circle cx="15.5" cy="357.5" r="4.5" transform="rotate(0,15.5,357.5)"/><circle cx="15.5" cy="366.5" r="4.5" transform="rotate(0,15.5,366.5)"/><circle cx="15.5" cy="393.5" r="4.5" transform="rotate(0,15.5,393.5)"/><circle cx="24.5" cy="105.5" r="4.5" transform="rotate(0,24.5,105.5)"/><circle cx="24.5" cy="123.5" r="4.5" transform="rotate(0,24.5,123.5)"/><circle cx="24.5" cy="159.5" r="4.5" transform="rotate(0,24.5,159.5)"/><circle cx="24.5" cy="168.5" r="4.5" transform="rotate(0,24.5,168.5)"/><circle cx="24.5" cy="186.5" r="4.5" transform="rotate(0,24.5,186.5)"/><circle cx="24.5" cy="222.5" r="4.5" transform="rotate(0,24.5,222.5)"/><circle cx="24.5" cy="231.5" r="4.5" transform="rotate(0,24.5,231.5)"/><circle cx="24.5" cy="240.5" r="4.5" transform="rotate(0,24.5,240.5)"/><circle cx="24.5" cy="258.5" r="4.5" transform="rotate(0,24.5,258.5)"/><circle cx="24.5" cy="330.5" r="4.5" transform="rotate(0,24.5,330.5)"/><circle cx="24.5" cy="348.5" r="4.5" transform="rotate(0,24.5,348.5)"/><circle cx="24.5" cy="357.5" r="4.5" transform="rotate(0,24.5,357.5)"/><circle cx="24.5" cy="366.5" r="4.5" transform="rotate(0,24.5,366.5)"/><circle cx="24.5" cy="375.5" r="4.5" transform="rotate(0,24.5,375.5)"/><circle cx="24.5" cy="384.5" r="4.5" transform="rotate(0,24.5,384.5)"/><circle cx="24.5" cy="393.5" r="4.5" transform="rotate(0,24.5,393.5)"/><circle cx="24.5" cy="402.5" r="4.5" transform="rotate(0,24.5,402.5)"/><circle cx="33.5" cy="87.5" r="4.5" transform="rotate(0,33.5,87.5)"/><circle cx="33.5" cy="96.5" r="4.5" transform="rotate(0,33.5,96.5)"/><circle cx="33.5" cy="114.5" r="4.5" transform="rotate(0,33.5,114.5)"/><circle cx="33.5" cy="123.5" r="4.5" transform="rotate(0,33.5,123.5)"/><circle cx="33.5" cy="141.5" r="4.5" transform="rotate(0,33.5,141.5)"/><circle cx="33.5" cy="168.5" r="4.5" transform="rotate(0,33.5,168.5)"/><circle cx="33.5" cy="177.5" r="4.5" transform="rotate(0,33.5,177.5)"/><circle cx="33.5" cy="204.5" r="4.5" transform="rotate(0,33.5,204.5)"/><circle cx="33.5" cy="222.5" r="4.5" transform="rotate(0,33.5,222.5)"/><circle cx="33.5" cy="240.5" r="4.5" transform="rotate(0,33.5,240.5)"/><circle cx="33.5" cy="258.5" r="4.5" transform="rotate(0,33.5,258.5)"/><circle cx="33.5" cy="267.5" r="4.5" transform="rotate(0,33.5,267.5)"/><circle cx="33.5" cy="294.5" r="4.5" transform="rotate(0,33.5,294.5)"/><circle cx="33.5" cy="303.5" r="4.5" transform="rotate(0,33.5,303.5)"/><circle cx="33.5" cy="321.5" r="4.5" transform="rotate(0,33.5,321.5)"/><circle cx="33.5" cy="339.5" r="4.5" transform="rotate(0,33.5,339.5)"/><circle cx="33.5" cy="357.5" r="4.5" transform="rotate(0,33.5,357.5)"/><circle cx="33.5" cy="375.5" r="4.5" transform="rotate(0,33.5,375.5)"/><circle cx="33.5" cy="384.5" r="4.5" transform="rotate(0,33.5,384.5)"/><circle cx="33.5" cy="402.5" r="4.5" transform="rotate(0,33.5,402.5)"/><circle cx="42.5" cy="87.5" r="4.5" transform="rotate(0,42.5,87.5)"/><circle cx="42.5" cy="96.5" r="4.5" transform="rotate(0,42.5,96.5)"/><circle cx="42.5" cy="105.5" r="4.5" transform="rotate(0,42.5,105.5)"/><circle cx="42.5" cy="141.5" r="4.5" transform="rotate(0,42.5,141.5)"/><circle cx="42.5" cy="159.5" r="4.5" transform="rotate(0,42.5,159.5)"/><circle cx="42.5" cy="177.5" r="4.5" transform="rotate(0,42.5,177.5)"/><circle cx="42.5" cy="213.5" r="4.5" transform="rotate(0,42.5,213.5)"/><circle cx="42.5" cy="231.5" r="4.5" transform="rotate(0,42.5,231.5)"/><circle cx="42.5" cy="258.5" r="4.5" transform="rotate(0,42.5,258.5)"/><circle cx="42.5" cy="276.5" r="4.5" transform="rotate(0,42.5,276.5)"/><circle cx="42.5" cy="285.5" r="4.5" transform="rotate(0,42.5,285.5)"/><circle cx="42.5" cy="393.5" r="4.5" transform="rotate(0,42.5,393.5)"/><circle cx="42.5" cy="411.5" r="4.5" transform="rotate(0,42.5,411.5)"/><circle cx="51.5" cy="105.5" r="4.5" transform="rotate(0,51.5,105.5)"/><circle cx="51.5" cy="114.5" r="4.5" transform="rotate(0,51.5,114.5)"/><circle cx="51.5" cy="141.5" r="4.5" transform="rotate(0,51.5,141.5)"/><circle cx="51.5" cy="150.5" r="4.5" transform="rotate(0,51.5,150.5)"/><circle cx="51.5" cy="195.5" r="4.5" transform="rotate(0,51.5,195.5)"/><circle cx="51.5" cy="213.5" r="4.5" transform="rotate(0,51.5,213.5)"/><circle cx="51.5" cy="231.5" r="4.5" transform="rotate(0,51.5,231.5)"/><circle cx="51.5" cy="240.5" r="4.5" transform="rotate(0,51.5,240.5)"/><circle cx="51.5" cy="249.5" r="4.5" transform="rotate(0,51.5,249.5)"/><circle cx="51.5" cy="258.5" r="4.5" transform="rotate(0,51.5,258.5)"/><circle cx="51.5" cy="267.5" r="4.5" transform="rotate(0,51.5,267.5)"/><circle cx="51.5" cy="276.5" r="4.5" transform="rotate(0,51.5,276.5)"/><circle cx="51.5" cy="312.5" r="4.5" transform="rotate(0,51.5,312.5)"/><circle cx="51.5" cy="330.5" r="4.5" transform="rotate(0,51.5,330.5)"/><circle cx="51.5" cy="357.5" r="4.5" transform="rotate(0,51.5,357.5)"/><circle cx="51.5" cy="366.5" r="4.5" transform="rotate(0,51.5,366.5)"/><circle cx="51.5" cy="375.5" r="4.5" transform="rotate(0,51.5,375.5)"/><circle cx="51.5" cy="384.5" r="4.5" transform="rotate(0,51.5,384.5)"/><circle cx="51.5" cy="393.5" r="4.5" transform="rotate(0,51.5,393.5)"/><circle cx="60.5" cy="87.5" r="4.5" transform="rotate(0,60.5,87.5)"/><circle cx="60.5" cy="105.5" r="4.5" transform="rotate(0,60.5,105.5)"/><circle cx="60.5" cy="114.5" r="4.5" transform="rotate(0,60.5,114.5)"/><circle cx="60.5" cy="123.5" r="4.5" transform="rotate(0,60.5,123.5)"/><circle cx="60.5" cy="132.5" r="4.5" transform="rotate(0,60.5,132.5)"/><circle cx="60.5" cy="150.5" r="4.5" transform="rotate(0,60.5,150.5)"/><circle cx="60.5" cy="195.5" r="4.5" transform="rotate(0,60.5,195.5)"/><circle cx="60.5" cy="204.5" r="4.5" transform="rotate(0,60.5,204.5)"/><circle cx="60.5" cy="213.5" r="4.5" transform="rotate(0,60.5,213.5)"/><circle cx="60.5" cy="231.5" r="4.5" transform="rotate(0,60.5,231.5)"/><circle cx="60.5" cy="267.5" r="4.5" transform="rotate(0,60.5,267.5)"/><circle cx="60.5" cy="312.5" r="4.5" transform="rotate(0,60.5,312.5)"/><circle cx="60.5" cy="321.5" r="4.5" transform="rotate(0,60.5,321.5)"/><circle cx="60.5" cy="330.5" r="4.5" transform="rotate(0,60.5,330.5)"/><circle cx="60.5" cy="339.5" r="4.5" transform="rotate(0,60.5,339.5)"/><circle cx="60.5" cy="348.5" r="4.5" transform="rotate(0,60.5,348.5)"/><circle cx="60.5" cy="375.5" r="4.5" transform="rotate(0,60.5,375.5)"/><circle cx="60.5" cy="393.5" r="4.5" transform="rotate(0,60.5,393.5)"/><circle cx="69.5" cy="87.5" r="4.5" transform="rotate(0,69.5,87.5)"/><circle cx="69.5" cy="105.5" r="4.5" transform="rotate(0,69.5,105.5)"/><circle cx="69.5" cy="123.5" r="4.5" transform="rotate(0,69.5,123.5)"/><circle cx="69.5" cy="141.5" r="4.5" transform="rotate(0,69.5,141.5)"/><circle cx="69.5" cy="159.5" r="4.5" transform="rotate(0,69.5,159.5)"/><circle cx="69.5" cy="177.5" r="4.5" transform="rotate(0,69.5,177.5)"/><circle cx="69.5" cy="195.5" r="4.5" transform="rotate(0,69.5,195.5)"/><circle cx="69.5" cy="213.5" r="4.5" transform="rotate(0,69.5,213.5)"/><circle cx="69.5" cy="231.5" r="4.5" transform="rotate(0,69.5,231.5)"/><circle cx="69.5" cy="249.5" r="4.5" transform="rotate(0,69.5,249.5)"/><circle cx="69.5" cy="267.5" r="4.5" transform="rotate(0,69.5,267.5)"/><circle cx="69.5" cy="285.5" r="4.5" transform="rotate(0,69.5,285.5)"/><circle cx="69.5" cy="303.5" r="4.5" transform="rotate(0,69.5,303.5)"/><circle cx="69.5" cy="321.5" r="4.5" transform="rotate(0,69.5,321.5)"/><circle cx="69.5" cy="339.5" r="4.5" transform="rotate(0,69.5,339.5)"/><circle cx="69.5" cy="357.5" r="4.5" transform="rotate(0,69.5,357.5)"/><circle cx="69.5" cy="375.5" r="4.5" transform="rotate(0,69.5,375.5)"/><circle cx="69.5" cy="393.5" r="4.5" transform="rotate(0,69.5,393.5)"/><circle cx="69.5" cy="411.5" r="4.5" transform="rotate(0,69.5,411.5)"/><circle cx="78.5" cy="87.5" r="4.5" transform="rotate(0,78.5,87.5)"/><circle cx="78.5" cy="96.5" r="4.5" transform="rotate(0,78.5,96.5)"/><circle cx="78.5" cy="105.5" r="4.5" transform="rotate(0,78.5,105.5)"/><circle cx="78.5" cy="114.5" r="4.5" transform="rotate(0,78.5,114.5)"/><circle cx="78.5" cy="132.5" r="4.5" transform="rotate(0,78.5,132.5)"/><circle cx="78.5" cy="159.5" r="4.5" transform="rotate(0,78.5,159.5)"/><circle cx="78.5" cy="168.5" r="4.5" transform="rotate(0,78.5,168.5)"/><circle cx="78.5" cy="186.5" r="4.5" transform="rotate(0,78.5,186.5)"/><circle cx="78.5" cy="204.5" r="4.5" transform="rotate(0,78.5,204.5)"/><circle cx="78.5" cy="231.5" r="4.5" transform="rotate(0,78.5,231.5)"/><circle cx="78.5" cy="267.5" r="4.5" transform="rotate(0,78.5,267.5)"/><circle cx="78.5" cy="303.5" r="4.5" transform="rotate(0,78.5,303.5)"/><circle cx="78.5" cy="330.5" r="4.5" transform="rotate(0,78.5,330.5)"/><circle cx="78.5" cy="339.5" r="4.5" transform="rotate(0,78.5,339.5)"/><circle cx="78.5" cy="348.5" r="4.5" transform="rotate(0,78.5,348.5)"/><circle cx="78.5" cy="366.5" r="4.5" transform="rotate(0,78.5,366.5)"/><circle cx="78.5" cy="375.5" r="4.5" transform="rotate(0,78.5,375.5)"/><circle cx="78.5" cy="393.5" r="4.5" transform="rotate(0,78.5,393.5)"/><circle cx="78.5" cy="402.5" r="4.5" transform="rotate(0,78.5,402.5)"/><circle cx="78.5" cy="411.5" r="4.5" transform="rotate(0,78.5,411.5)"/><circle cx="87.5" cy="24.5" r="4.5" transform="rotate(0,87.5,24.5)"/><circle cx="87.5" cy="42.5" r="4.5" transform="rotate(0,87.5,42.5)"/><circle cx="87.5" cy="60.5" r="4.5" transform="rotate(0,87.5,60.5)"/><circle cx="87.5" cy="69.5" r="4.5" transform="rotate(0,87.5,69.5)"/><circle cx="87.5" cy="78.5" r="4.5" transform="rotate(0,87.5,78.5)"/><circle cx="87.5" cy="87.5" r="4.5" transform="rotate(0,87.5,87.5)"/><circle cx="87.5" cy="105.5" r="4.5" transform="rotate(0,87.5,105.5)"/><circle cx="87.5" cy="123.5" r="4.5" transform="rotate(0,87.5,123.5)"/><circle cx="87.5" cy="132.5" r="4.5" transform="rotate(0,87.5,132.5)"/><circle cx="87.5" cy="141.5" r="4.5" transform="rotate(0,87.5,141.5)"/><circle cx="87.5" cy="159.5" r="4.5" transform="rotate(0,87.5,159.5)"/><circle cx="87.5" cy="168.5" r="4.5" transform="rotate(0,87.5,168.5)"/><circle cx="87.5" cy="195.5" r="4.5" transform="rotate(0,87.5,195.5)"/><circle cx="87.5" cy="204.5" r="4.5" transform="rotate(0,87.5,204.5)"/><circle cx="87.5" cy="231.5" r="4.5" transform="rotate(0,87.5,231.5)"/><circle cx="87.5" cy="240.5" r="4.5" transform="rotate(0,87.5,240.5)"/><circle cx="87.5" cy="249.5" r="4.5" transform="rotate(0,87.5,249.5)"/><circle cx="87.5" cy="258.5" r="4.5" transform="rotate(0,87.5,258.5)"/><circle cx="87.5" cy="267.5" r="4.5" transform="rotate(0,87.5,267.5)"/><circle cx="87.5" cy="285.5" r="4.5" transform="rotate(0,87.5,285.5)"/><circle cx="87.5" cy="294.5" r="4.5" transform="rotate(0,87.5,294.5)"/><circle cx="87.5" cy="312.5" r="4.5" transform="rotate(0,87.5,312.5)"/><circle cx="87.5" cy="321.5" r="4.5" transform="rotate(0,87.5,321.5)"/><circle cx="87.5" cy="339.5" r="4.5" transform="rotate(0,87.5,339.5)"/><circle cx="87.5" cy="348.5" r="4.5" transform="rotate(0,87.5,348.5)"/><circle cx="87.5" cy="366.5" r="4.5" transform="rotate(0,87.5,366.5)"/><circle cx="87.5" cy="375.5" r="4.5" transform="rotate(0,87.5,375.5)"/><circle cx="87.5" cy="411.5" r="4.5" transform="rotate(0,87.5,411.5)"/><circle cx="87.5" cy="420.5" r="4.5" transform="rotate(0,87.5,420.5)"/><circle cx="87.5" cy="429.5" r="4.5" transform="rotate(0,87.5,429.5)"/><circle cx="87.5" cy="438.5" r="4.5" transform="rotate(0,87.5,438.5)"/><circle cx="87.5" cy="456.5" r="4.5" transform="rotate(0,87.5,456.5)"/><circle cx="87.5" cy="465.5" r="4.5" transform="rotate(0,87.5,465.5)"/><circle cx="87.5" cy="483.5" r="4.5" transform="rotate(0,87.5,483.5)"/><circle cx="96.5" cy="51.5" r="4.5" transform="rotate(0,96.5,51.5)"/><circle cx="96.5" cy="87.5" r="4.5" transform="rotate(0,96.5,87.5)"/><circle cx="96.5" cy="114.5" r="4.5" transform="rotate(0,96.5,114.5)"/><circle cx="96.5" cy="123.5" r="4.5" transform="rotate(0,96.5,123.5)"/><circle cx="96.5" cy="132.5" r="4.5" transform="rotate(0,96.5,132.5)"/><circle cx="96.5" cy="141.5" r="4.5" transform="rotate(0,96.5,141.5)"/><circle cx="96.5" cy="150.5" r="4.5" transform="rotate(0,96.5,150.5)"/><circle cx="96.5" cy="195.5" r="4.5" transform="rotate(0,96.5,195.5)"/><circle cx="96.5" cy="204.5" r="4.5" transform="rotate(0,96.5,204.5)"/><circle cx="96.5" cy="213.5" r="4.5" transform="rotate(0,96.5,213.5)"/><circle cx="96.5" cy="222.5" r="4.5" transform="rotate(0,96.5,222.5)"/><circle cx="96.5" cy="231.5" r="4.5" transform="rotate(0,96.5,231.5)"/><circle cx="96.5" cy="249.5" r="4.5" transform="rotate(0,96.5,249.5)"/><circle cx="96.5" cy="267.5" r="4.5" transform="rotate(0,96.5,267.5)"/><circle cx="96.5" cy="294.5" r="4.5" transform="rotate(0,96.5,294.5)"/><circle cx="96.5" cy="303.5" r="4.5" transform="rotate(0,96.5,303.5)"/><circle cx="96.5" cy="339.5" r="4.5" transform="rotate(0,96.5,339.5)"/><circle cx="96.5" cy="348.5" r="4.5" transform="rotate(0,96.5,348.5)"/><circle cx="96.5" cy="375.5" r="4.5" transform="rotate(0,96.5,375.5)"/><circle cx="96.5" cy="402.5" r="4.5" transform="rotate(0,96.5,402.5)"/><circle cx="96.5" cy="447.5" r="4.5" transform="rotate(0,96.5,447.5)"/><circle cx="96.5" cy="483.5" r="4.5" transform="rotate(0,96.5,483.5)"/><circle cx="105.5" cy="24.5" r="4.5" transform="rotate(0,105.5,24.5)"/><circle cx="105.5" cy="51.5" r="4.5" transform="rotate(0,105.5,51.5)"/><circle cx="105.5" cy="60.5" r="4.5" transform="rotate(0,105.5,60.5)"/><circle cx="105.5" cy="69.5" r="4.5" transform="rotate(0,105.5,69.5)"/><circle cx="105.5" cy="78.5" r="4.5" transform="rotate(0,105.5,78.5)"/><circle cx="105.5" cy="87.5" r="4.5" transform="rotate(0,105.5,87.5)"/><circle cx="105.5" cy="96.5" r="4.5" transform="rotate(0,105.5,96.5)"/><circle cx="105.5" cy="114.5" r="4.5" transform="rotate(0,105.5,114.5)"/><circle cx="105.5" cy="132.5" r="4.5" transform="rotate(0,105.5,132.5)"/><circle cx="105.5" cy="159.5" r="4.5" transform="rotate(0,105.5,159.5)"/><circle cx="105.5" cy="186.5" r="4.5" transform="rotate(0,105.5,186.5)"/><circle cx="105.5" cy="213.5" r="4.5" transform="rotate(0,105.5,213.5)"/><circle cx="105.5" cy="222.5" r="4.5" transform="rotate(0,105.5,222.5)"/><circle cx="105.5" cy="240.5" r="4.5" transform="rotate(0,105.5,240.5)"/><circle cx="105.5" cy="249.5" r="4.5" transform="rotate(0,105.5,249.5)"/><circle cx="105.5" cy="267.5" r="4.5" transform="rotate(0,105.5,267.5)"/><circle cx="105.5" cy="294.5" r="4.5" transform="rotate(0,105.5,294.5)"/><circle cx="105.5" cy="321.5" r="4.5" transform="rotate(0,105.5,321.5)"/><circle cx="105.5" cy="330.5" r="4.5" transform="rotate(0,105.5,330.5)"/><circle cx="105.5" cy="366.5" r="4.5" transform="rotate(0,105.5,366.5)"/><circle cx="105.5" cy="375.5" r="4.5" transform="rotate(0,105.5,375.5)"/><circle cx="105.5" cy="402.5" r="4.5" transform="rotate(0,105.5,402.5)"/><circle cx="105.5" cy="429.5" r="4.5" transform="rotate(0,105.5,429.5)"/><circle cx="105.5" cy="438.5" r="4.5" transform="rotate(0,105.5,438.5)"/><circle cx="105.5" cy="465.5" r="4.5" transform="rotate(0,105.5,465.5)"/><circle cx="105.5" cy="474.5" r="4.5" transform="rotate(0,105.5,474.5)"/><circle cx="114.5" cy="24.5" r="4.5" transform="rotate(0,114.5,24.5)"/><circle cx="114.5" cy="42.5" r="4.5" transform="rotate(0,114.5,42.5)"/><circle cx="114.5" cy="60.5" r="4.5" transform="rotate(0,114.5,60.5)"/><circle cx="114.5" cy="87.5" r="4.5" transform="rotate(0,114.5,87.5)"/><circle cx="114.5" cy="114.5" r="4.5" transform="rotate(0,114.5,114.5)"/><circle cx="114.5" cy="132.5" r="4.5" transform="rotate(0,114.5,132.5)"/><circle cx="114.5" cy="141.5" r="4.5" transform="rotate(0,114.5,141.5)"/><circle cx="114.5" cy="150.5" r="4.5" transform="rotate(0,114.5,150.5)"/><circle cx="114.5" cy="168.5" r="4.5" transform="rotate(0,114.5,168.5)"/><circle cx="114.5" cy="231.5" r="4.5" transform="rotate(0,114.5,231.5)"/><circle cx="114.5" cy="240.5" r="4.5" transform="rotate(0,114.5,240.5)"/><circle cx="114.5" cy="267.5" r="4.5" transform="rotate(0,114.5,267.5)"/><circle cx="114.5" cy="276.5" r="4.5" transform="rotate(0,114.5,276.5)"/><circle cx="114.5" cy="312.5" r="4.5" transform="rotate(0,114.5,312.5)"/><circle cx="114.5" cy="330.5" r="4.5" transform="rotate(0,114.5,330.5)"/><circle cx="114.5" cy="339.5" r="4.5" transform="rotate(0,114.5,339.5)"/><circle cx="114.5" cy="348.5" r="4.5" transform="rotate(0,114.5,348.5)"/><circle cx="114.5" cy="357.5" r="4.5" transform="rotate(0,114.5,357.5)"/><circle cx="114.5" cy="384.5" r="4.5" transform="rotate(0,114.5,384.5)"/><circle cx="114.5" cy="402.5" r="4.5" transform="rotate(0,114.5,402.5)"/><circle cx="114.5" cy="429.5" r="4.5" transform="rotate(0,114.5,429.5)"/><circle cx="114.5" cy="438.5" r="4.5" transform="rotate(0,114.5,438.5)"/><circle cx="114.5" cy="465.5" r="4.5" transform="rotate(0,114.5,465.5)"/><circle cx="114.5" cy="474.5" r="4.5" transform="rotate(0,114.5,474.5)"/><circle cx="123.5" cy="15.5" r="4.5" transform="rotate(0,123.5,15.5)"/><circle cx="123.5" cy="24.5" r="4.5" transform="rotate(0,123.5,24.5)"/><circle cx="123.5" cy="33.5" r="4.5" transform="rotate(0,123.5,33.5)"/><circle cx="123.5" cy="42.5" r="4.5" transform="rotate(0,123.5,42.5)"/><circle cx="123.5" cy="51.5" r="4.5" transform="rotate(0,123.5,51.5)"/><circle cx="123.5" cy="60.5" r="4.5" transform="rotate(0,123.5,60.5)"/><circle cx="123.5" cy="69.5" r="4.5" transform="rotate(0,123.5,69.5)"/><circle cx="123.5" cy="78.5" r="4.5" transform="rotate(0,123.5,78.5)"/><circle cx="123.5" cy="96.5" r="4.5" transform="rotate(0,123.5,96.5)"/><circle cx="123.5" cy="114.5" r="4.5" transform="rotate(0,123.5,114.5)"/><circle cx="123.5" cy="141.5" r="4.5" transform="rotate(0,123.5,141.5)"/><circle cx="123.5" cy="159.5" r="4.5" transform="rotate(0,123.5,159.5)"/><circle cx="123.5" cy="168.5" r="4.5" transform="rotate(0,123.5,168.5)"/><circle cx="123.5" cy="177.5" r="4.5" transform="rotate(0,123.5,177.5)"/><circle cx="123.5" cy="186.5" r="4.5" transform="rotate(0,123.5,186.5)"/><circle cx="123.5" cy="195.5" r="4.5" transform="rotate(0,123.5,195.5)"/><circle cx="123.5" cy="240.5" r="4.5" transform="rotate(0,123.5,240.5)"/><circle cx="123.5" cy="294.5" r="4.5" transform="rotate(0,123.5,294.5)"/><circle cx="123.5" cy="303.5" r="4.5" transform="rotate(0,123.5,303.5)"/><circle cx="123.5" cy="312.5" r="4.5" transform="rotate(0,123.5,312.5)"/><circle cx="123.5" cy="321.5" r="4.5" transform="rotate(0,123.5,321.5)"/><circle cx="123.5" cy="330.5" r="4.5" transform="rotate(0,123.5,330.5)"/><circle cx="123.5" cy="339.5" r="4.5" transform="rotate(0,123.5,339.5)"/><circle cx="123.5" cy="375.5" r="4.5" transform="rotate(0,123.5,375.5)"/><circle cx="123.5" cy="384.5" r="4.5" transform="rotate(0,123.5,384.5)"/><circle cx="123.5" cy="393.5" r="4.5" transform="rotate(0,123.5,393.5)"/><circle cx="123.5" cy="411.5" r="4.5" transform="rotate(0,123.5,411.5)"/><circle cx="123.5" cy="438.5" r="4.5" transform="rotate(0,123.5,438.5)"/><circle cx="123.5" cy="447.5" r="4.5" transform="rotate(0,123.5,447.5)"/><circle cx="123.5" cy="474.5" r="4.5" transform="rotate(0,123.5,474.5)"/><circle cx="123.5" cy="483.5" r="4.5" transform="rotate(0,123.5,483.5)"/><circle cx="132.5" cy="15.5" r="4.5" transform="rotate(0,132.5,15.5)"/><circle cx="132.5" cy="33.5" r="4.5" transform="rotate(0,132.5,33.5)"/><circle cx="132.5" cy="51.5" r="4.5" transform="rotate(0,132.5,51.5)"/><circle cx="132.5" cy="78.5" r="4.5" transform="rotate(0,132.5,78.5)"/><circle cx="132.5" cy="96.5" r="4.5" transform="rotate(0,132.5,96.5)"/><circle cx="132.5" cy="132.5" r="4.5" transform="rotate(0,132.5,132.5)"/><circle cx="132.5" cy="150.5" r="4.5" transform="rotate(0,132.5,150.5)"/><circle cx="132.5" cy="168.5" r="4.5" transform="rotate(0,132.5,168.5)"/><circle cx="132.5" cy="222.5" r="4.5" transform="rotate(0,132.5,222.5)"/><circle cx="132.5" cy="231.5" r="4.5" transform="rotate(0,132.5,231.5)"/><circle cx="132.5" cy="240.5" r="4.5" transform="rotate(0,132.5,240.5)"/><circle cx="132.5" cy="249.5" r="4.5" transform="rotate(0,132.5,249.5)"/><circle cx="132.5" cy="258.5" r="4.5" transform="rotate(0,132.5,258.5)"/><circle cx="132.5" cy="276.5" r="4.5" transform="rotate(0,132.5,276.5)"/><circle cx="132.5" cy="303.5" r="4.5" transform="rotate(0,132.5,303.5)"/><circle cx="132.5" cy="312.5" r="4.5" transform="rotate(0,132.5,312.5)"/><circle cx="132.5" cy="321.5" r="4.5" transform="rotate(0,132.5,321.5)"/><circle cx="132.5" cy="339.5" r="4.5" transform="rotate(0,132.5,339.5)"/><circle cx="132.5" cy="375.5" r="4.5" transform="rotate(0,132.5,375.5)"/><circle cx="132.5" cy="402.5" r="4.5" transform="rotate(0,132.5,402.5)"/><circle cx="132.5" cy="411.5" r="4.5" transform="rotate(0,132.5,411.5)"/><circle cx="132.5" cy="447.5" r="4.5" transform="rotate(0,132.5,447.5)"/><circle cx="132.5" cy="456.5" r="4.5" transform="rotate(0,132.5,456.5)"/><circle cx="132.5" cy="474.5" r="4.5" transform="rotate(0,132.5,474.5)"/><circle cx="141.5" cy="33.5" r="4.5" transform="rotate(0,141.5,33.5)"/><circle cx="141.5" cy="69.5" r="4.5" transform="rotate(0,141.5,69.5)"/><circle cx="141.5" cy="78.5" r="4.5" transform="rotate(0,141.5,78.5)"/><circle cx="141.5" cy="87.5" r="4.5" transform="rotate(0,141.5,87.5)"/><circle cx="141.5" cy="105.5" r="4.5" transform="rotate(0,141.5,105.5)"/><circle cx="141.5" cy="114.5" r="4.5" transform="rotate(0,141.5,114.5)"/><circle cx="141.5" cy="132.5" r="4.5" transform="rotate(0,141.5,132.5)"/><circle cx="141.5" cy="141.5" r="4.5" transform="rotate(0,141.5,141.5)"/><circle cx="141.5" cy="150.5" r="4.5" transform="rotate(0,141.5,150.5)"/><circle cx="141.5" cy="159.5" r="4.5" transform="rotate(0,141.5,159.5)"/><circle cx="141.5" cy="168.5" r="4.5" transform="rotate(0,141.5,168.5)"/><circle cx="141.5" cy="177.5" r="4.5" transform="rotate(0,141.5,177.5)"/><circle cx="141.5" cy="186.5" r="4.5" transform="rotate(0,141.5,186.5)"/><circle cx="141.5" cy="204.5" r="4.5" transform="rotate(0,141.5,204.5)"/><circle cx="141.5" cy="213.5" r="4.5" transform="rotate(0,141.5,213.5)"/><circle cx="141.5" cy="240.5" r="4.5" transform="rotate(0,141.5,240.5)"/><circle cx="141.5" cy="294.5" r="4.5" transform="rotate(0,141.5,294.5)"/><circle cx="141.5" cy="312.5" r="4.5" transform="rotate(0,141.5,312.5)"/><circle cx="141.5" cy="321.5" r="4.5" transform="rotate(0,141.5,321.5)"/><circle cx="141.5" cy="330.5" r="4.5" transform="rotate(0,141.5,330.5)"/><circle cx="141.5" cy="339.5" r="4.5" transform="rotate(0,141.5,339.5)"/><circle cx="141.5" cy="348.5" r="4.5" transform="rotate(0,141.5,348.5)"/><circle cx="141.5" cy="357.5" r="4.5" transform="rotate(0,141.5,357.5)"/><circle cx="141.5" cy="375.5" r="4.5" transform="rotate(0,141.5,375.5)"/><circle cx="141.5" cy="384.5" r="4.5" transform="rotate(0,141.5,384.5)"/><circle cx="141.5" cy="411.5" r="4.5" transform="rotate(0,141.5,411.5)"/><circle cx="141.5" cy="429.5" r="4.5" transform="rotate(0,141.5,429.5)"/><circle cx="141.5" cy="456.5" r="4.5" transform="rotate(0,141.5,456.5)"/><circle cx="141.5" cy="465.5" r="4.5" transform="rotate(0,141.5,465.5)"/><circle cx="141.5" cy="483.5" r="4.5" transform="rotate(0,141.5,483.5)"/><circle cx="150.5" cy="15.5" r="4.5" transform="rotate(0,150.5,15.5)"/><circle cx="150.5" cy="33.5" r="4.5" transform="rotate(0,150.5,33.5)"/><circle cx="150.5" cy="42.5" r="4.5" transform="rotate(0,150.5,42.5)"/><circle cx="150.5" cy="78.5" r="4.5" transform="rotate(0,150.5,78.5)"/><circle cx="150.5" cy="96.5" r="4.5" transform="rotate(0,150.5,96.5)"/><circle cx="150.5" cy="114.5" r="4.5" transform="rotate(0,150.5,114.5)"/><circle cx="150.5" cy="141.5" r="4.5" transform="rotate(0,150.5,141.5)"/><circle cx="150.5" cy="159.5" r="4.5" transform="rotate(0,150.5,159.5)"/><circle cx="150.5" cy="168.5" r="4.5" transform="rotate(0,150.5,168.5)"/><circle cx="150.5" cy="204.5" r="4.5" transform="rotate(0,150.5,204.5)"/><circle cx="150.5" cy="213.5" r="4.5" transform="rotate(0,150.5,213.5)"/><circle cx="150.5" cy="240.5" r="4.5" transform="rotate(0,150.5,240.5)"/><circle cx="150.5" cy="285.5" r="4.5" transform="rotate(0,150.5,285.5)"/><circle cx="150.5" cy="294.5" r="4.5" transform="rotate(0,150.5,294.5)"/><circle cx="150.5" cy="303.5" r="4.5" transform="rotate(0,150.5,303.5)"/><circle cx="150.5" cy="357.5" r="4.5" transform="rotate(0,150.5,357.5)"/><circle cx="150.5" cy="366.5" r="4.5" transform="rotate(0,150.5,366.5)"/><circle cx="150.5" cy="375.5" r="4.5" transform="rotate(0,150.5,375.5)"/><circle cx="150.5" cy="411.5" r="4.5" transform="rotate(0,150.5,411.5)"/><circle cx="150.5" cy="429.5" r="4.5" transform="rotate(0,150.5,429.5)"/><circle cx="150.5" cy="438.5" r="4.5" transform="rotate(0,150.5,438.5)"/><circle cx="150.5" cy="447.5" r="4.5" transform="rotate(0,150.5,447.5)"/><circle cx="150.5" cy="483.5" r="4.5" transform="rotate(0,150.5,483.5)"/><circle cx="159.5" cy="24.5" r="4.5" transform="rotate(0,159.5,24.5)"/><circle cx="159.5" cy="60.5" r="4.5" transform="rotate(0,159.5,60.5)"/><circle cx="159.5" cy="69.5" r="4.5" transform="rotate(0,159.5,69.5)"/><circle cx="159.5" cy="78.5" r="4.5" transform="rotate(0,159.5,78.5)"/><circle cx="159.5" cy="96.5" r="4.5" transform="rotate(0,159.5,96.5)"/><circle cx="159.5" cy="105.5" r="4.5" transform="rotate(0,159.5,105.5)"/><circle cx="159.5" cy="123.5" r="4.5" transform="rotate(0,159.5,123.5)"/><circle cx="159.5" cy="132.5" r="4.5" transform="rotate(0,159.5,132.5)"/><circle cx="159.5" cy="141.5" r="4.5" transform="rotate(0,159.5,141.5)"/><circle cx="159.5" cy="168.5" r="4.5" transform="rotate(0,159.5,168.5)"/><circle cx="159.5" cy="177.5" r="4.5" transform="rotate(0,159.5,177.5)"/><circle cx="159.5" cy="240.5" r="4.5" transform="rotate(0,159.5,240.5)"/><circle cx="159.5" cy="249.5" r="4.5" transform="rotate(0,159.5,249.5)"/><circle cx="159.5" cy="294.5" r="4.5" transform="rotate(0,159.5,294.5)"/><circle cx="159.5" cy="303.5" r="4.5" transform="rotate(0,159.5,303.5)"/><circle cx="159.5" cy="312.5" r="4.5" transform="rotate(0,159.5,312.5)"/><circle cx="159.5" cy="330.5" r="4.5" transform="rotate(0,159.5,330.5)"/><circle cx="159.5" cy="339.5" r="4.5" transform="rotate(0,159.5,339.5)"/><circle cx="159.5" cy="348.5" r="4.5" transform="rotate(0,159.5,348.5)"/><circle cx="159.5" cy="384.5" r="4.5" transform="rotate(0,159.5,384.5)"/><circle cx="159.5" cy="402.5" r="4.5" transform="rotate(0,159.5,402.5)"/><circle cx="159.5" cy="438.5" r="4.5" transform="rotate(0,159.5,438.5)"/><circle cx="159.5" cy="447.5" r="4.5" transform="rotate(0,159.5,447.5)"/><circle cx="159.5" cy="456.5" r="4.5" transform="rotate(0,159.5,456.5)"/><circle cx="168.5" cy="15.5" r="4.5" transform="rotate(0,168.5,15.5)"/><circle cx="168.5" cy="24.5" r="4.5" transform="rotate(0,168.5,24.5)"/><circle cx="168.5" cy="42.5" r="4.5" transform="rotate(0,168.5,42.5)"/><circle cx="168.5" cy="60.5" r="4.5" transform="rotate(0,168.5,60.5)"/><circle cx="168.5" cy="87.5" r="4.5" transform="rotate(0,168.5,87.5)"/><circle cx="168.5" cy="114.5" r="4.5" transform="rotate(0,168.5,114.5)"/><circle cx="168.5" cy="150.5" r="4.5" transform="rotate(0,168.5,150.5)"/><circle cx="168.5" cy="195.5" r="4.5" transform="rotate(0,168.5,195.5)"/><circle cx="168.5" cy="204.5" r="4.5" transform="rotate(0,168.5,204.5)"/><circle cx="168.5" cy="213.5" r="4.5" transform="rotate(0,168.5,213.5)"/><circle cx="168.5" cy="249.5" r="4.5" transform="rotate(0,168.5,249.5)"/><circle cx="168.5" cy="258.5" r="4.5" transform="rotate(0,168.5,258.5)"/><circle cx="168.5" cy="267.5" r="4.5" transform="rotate(0,168.5,267.5)"/><circle cx="168.5" cy="276.5" r="4.5" transform="rotate(0,168.5,276.5)"/><circle cx="168.5" cy="285.5" r="4.5" transform="rotate(0,168.5,285.5)"/><circle cx="168.5" cy="294.5" r="4.5" transform="rotate(0,168.5,294.5)"/><circle cx="168.5" cy="303.5" r="4.5" transform="rotate(0,168.5,303.5)"/><circle cx="168.5" cy="330.5" r="4.5" transform="rotate(0,168.5,330.5)"/><circle cx="168.5" cy="339.5" r="4.5" transform="rotate(0,168.5,339.5)"/><circle cx="168.5" cy="357.5" r="4.5" transform="rotate(0,168.5,357.5)"/><circle cx="168.5" cy="366.5" r="4.5" transform="rotate(0,168.5,366.5)"/><circle cx="168.5" cy="384.5" r="4.5" transform="rotate(0,168.5,384.5)"/><circle cx="168.5" cy="411.5" r="4.5" transform="rotate(0,168.5,411.5)"/><circle cx="168.5" cy="447.5" r="4.5" transform="rotate(0,168.5,447.5)"/><circle cx="168.5" cy="465.5" r="4.5" transform="rotate(0,168.5,465.5)"/><circle cx="168.5" cy="474.5" r="4.5" transform="rotate(0,168.5,474.5)"/><circle cx="168.5" cy="483.5" r="4.5" transform="rotate(0,168.5,483.5)"/><circle cx="177.5" cy="15.5" r="4.5" transform="rotate(0,177.5,15.5)"/><circle cx="177.5" cy="33.5" r="4.5" transform="rotate(0,177.5,33.5)"/><circle cx="177.5" cy="42.5" r="4.5" transform="rotate(0,177.5,42.5)"/><circle cx="177.5" cy="51.5" r="4.5" transform="rotate(0,177.5,51.5)"/><circle cx="177.5" cy="69.5" r="4.5" transform="rotate(0,177.5,69.5)"/><circle cx="177.5" cy="87.5" r="4.5" transform="rotate(0,177.5,87.5)"/><circle cx="177.5" cy="96.5" r="4.5" transform="rotate(0,177.5,96.5)"/><circle cx="177.5" cy="123.5" r="4.5" transform="rotate(0,177.5,123.5)"/><circle cx="177.5" cy="168.5" r="4.5" transform="rotate(0,177.5,168.5)"/><circle cx="177.5" cy="195.5" r="4.5" transform="rotate(0,177.5,195.5)"/><circle cx="177.5" cy="204.5" r="4.5" transform="rotate(0,177.5,204.5)"/><circle cx="177.5" cy="258.5" r="4.5" transform="rotate(0,177.5,258.5)"/><circle cx="177.5" cy="267.5" r="4.5" transform="rotate(0,177.5,267.5)"/><circle cx="177.5" cy="285.5" r="4.5" transform="rotate(0,177.5,285.5)"/><circle cx="177.5" cy="294.5" r="4.5" transform="rotate(0,177.5,294.5)"/><circle cx="177.5" cy="312.5" r="4.5" transform="rotate(0,177.5,312.5)"/><circle cx="177.5" cy="330.5" r="4.5" transform="rotate(0,177.5,330.5)"/><circle cx="177.5" cy="447.5" r="4.5" transform="rotate(0,177.5,447.5)"/><circle cx="177.5" cy="465.5" r="4.5" transform="rotate(0,177.5,465.5)"/><circle cx="177.5" cy="474.5" r="4.5" transform="rotate(0,177.5,474.5)"/><circle cx="177.5" cy="483.5" r="4.5" transform="rotate(0,177.5,483.5)"/><circle cx="186.5" cy="24.5" r="4.5" transform="rotate(0,186.5,24.5)"/><circle cx="186.5" cy="42.5" r="4.5" transform="rotate(0,186.5,42.5)"/><circle cx="186.5" cy="51.5" r="4.5" transform="rotate(0,186.5,51.5)"/><circle cx="186.5" cy="60.5" r="4.5" transform="rotate(0,186.5,60.5)"/><circle cx="186.5" cy="87.5" r="4.5" transform="rotate(0,186.5,87.5)"/><circle cx="186.5" cy="150.5" r="4.5" transform="rotate(0,186.5,150.5)"/><circle cx="186.5" cy="159.5" r="4.5" transform="rotate(0,186.5,159.5)"/><circle cx="186.5" cy="204.5" r="4.5" transform="rotate(0,186.5,204.5)"/><circle cx="186.5" cy="213.5" r="4.5" transform="rotate(0,186.5,213.5)"/><circle cx="186.5" cy="240.5" r="4.5" transform="rotate(0,186.5,240.5)"/><circle cx="186.5" cy="249.5" r="4.5" transform="rotate(0,186.5,249.5)"/><circle cx="186.5" cy="276.5" r="4.5" transform="rotate(0,186.5,276.5)"/><circle cx="186.5" cy="303.5" r="4.5" transform="rotate(0,186.5,303.5)"/><circle cx="186.5" cy="321.5" r="4.5" transform="rotate(0,186.5,321.5)"/><circle cx="186.5" cy="330.5" r="4.5" transform="rotate(0,186.5,330.5)"/><circle cx="186.5" cy="348.5" r="4.5" transform="rotate(0,186.5,348.5)"/><circle cx="186.5" cy="357.5" r="4.5" transform="rotate(0,186.5,357.5)"/><circle cx="186.5" cy="384.5" r="4.5" transform="rotate(0,186.5,384.5)"/><circle cx="186.5" cy="402.5" r="4.5" transform="rotate(0,186.5,402.5)"/><circle cx="186.5" cy="411.5" r="4.5" transform="rotate(0,186.5,411.5)"/><circle cx="186.5" cy="429.5" r="4.5" transform="rotate(0,186.5,429.5)"/><circle cx="186.5" cy="438.5" r="4.5" transform="rotate(0,186.5,438.5)"/><circle cx="186.5" cy="447.5" r="4.5" transform="rotate(0,186.5,447.5)"/><circle cx="186.5" cy="456.5" r="4.5" transform="rotate(0,186.5,456.5)"/><circle cx="186.5" cy="474.5" r="4.5" transform="rotate(0,186.5,474.5)"/><circle cx="195.5" cy="15.5" r="4.5" transform="rotate(0,195.5,15.5)"/><circle cx="195.5" cy="42.5" r="4.5" transform="rotate(0,195.5,42.5)"/><circle cx="195.5" cy="69.5" r="4.5" transform="rotate(0,195.5,69.5)"/><circle cx="195.5" cy="78.5" r="4.5" transform="rotate(0,195.5,78.5)"/><circle cx="195.5" cy="96.5" r="4.5" transform="rotate(0,195.5,96.5)"/><circle cx="195.5" cy="132.5" r="4.5" transform="rotate(0,195.5,132.5)"/><circle cx="195.5" cy="159.5" r="4.5" transform="rotate(0,195.5,159.5)"/><circle cx="195.5" cy="168.5" r="4.5" transform="rotate(0,195.5,168.5)"/><circle cx="195.5" cy="177.5" r="4.5" transform="rotate(0,195.5,177.5)"/><circle cx="195.5" cy="195.5" r="4.5" transform="rotate(0,195.5,195.5)"/><circle cx="195.5" cy="213.5" r="4.5" transform="rotate(0,195.5,213.5)"/><circle cx="195.5" cy="222.5" r="4.5" transform="rotate(0,195.5,222.5)"/><circle cx="195.5" cy="240.5" r="4.5" transform="rotate(0,195.5,240.5)"/><circle cx="195.5" cy="267.5" r="4.5" transform="rotate(0,195.5,267.5)"/><circle cx="195.5" cy="285.5" r="4.5" transform="rotate(0,195.5,285.5)"/><circle cx="195.5" cy="294.5" r="4.5" transform="rotate(0,195.5,294.5)"/><circle cx="195.5" cy="312.5" r="4.5" transform="rotate(0,195.5,312.5)"/><circle cx="195.5" cy="321.5" r="4.5" transform="rotate(0,195.5,321.5)"/><circle cx="195.5" cy="357.5" r="4.5" transform="rotate(0,195.5,357.5)"/><circle cx="195.5" cy="375.5" r="4.5" transform="rotate(0,195.5,375.5)"/><circle cx="195.5" cy="402.5" r="4.5" transform="rotate(0,195.5,402.5)"/><circle cx="195.5" cy="411.5" r="4.5" transform="rotate(0,195.5,411.5)"/><circle cx="195.5" cy="420.5" r="4.5" transform="rotate(0,195.5,420.5)"/><circle cx="195.5" cy="429.5" r="4.5" transform="rotate(0,195.5,429.5)"/><circle cx="195.5" cy="447.5" r="4.5" transform="rotate(0,195.5,447.5)"/><circle cx="195.5" cy="456.5" r="4.5" transform="rotate(0,195.5,456.5)"/><circle cx="195.5" cy="465.5" r="4.5" transform="rotate(0,195.5,465.5)"/><circle cx="195.5" cy="474.5" r="4.5" transform="rotate(0,195.5,474.5)"/><circle cx="204.5" cy="15.5" r="4.5" transform="rotate(0,204.5,15.5)"/><circle cx="204.5" cy="33.5" r="4.5" transform="rotate(0,204.5,33.5)"/><circle cx="204.5" cy="78.5" r="4.5" transform="rotate(0,204.5,78.5)"/><circle cx="204.5" cy="87.5" r="4.5" transform="rotate(0,204.5,87.5)"/><circle cx="204.5" cy="114.5" r="4.5" transform="rotate(0,204.5,114.5)"/><circle cx="204.5" cy="168.5" r="4.5" transform="rotate(0,204.5,168.5)"/><circle cx="204.5" cy="186.5" r="4.5" transform="rotate(0,204.5,186.5)"/><circle cx="204.5" cy="195.5" r="4.5" transform="rotate(0,204.5,195.5)"/><circle cx="204.5" cy="240.5" r="4.5" transform="rotate(0,204.5,240.5)"/><circle cx="204.5" cy="258.5" r="4.5" transform="rotate(0,204.5,258.5)"/><circle cx="204.5" cy="276.5" r="4.5" transform="rotate(0,204.5,276.5)"/><circle cx="204.5" cy="330.5" r="4.5" transform="rotate(0,204.5,330.5)"/><circle cx="204.5" cy="339.5" r="4.5" transform="rotate(0,204.5,339.5)"/><circle cx="204.5" cy="357.5" r="4.5" transform="rotate(0,204.5,357.5)"/><circle cx="204.5" cy="447.5" r="4.5" transform="rotate(0,204.5,447.5)"/><circle cx="204.5" cy="465.5" r="4.5" transform="rotate(0,204.5,465.5)"/><circle cx="213.5" cy="33.5" r="4.5" transform="rotate(0,213.5,33.5)"/><circle cx="213.5" cy="42.5" r="4.5" transform="rotate(0,213.5,42.5)"/><circle cx="213.5" cy="51.5" r="4.5" transform="rotate(0,213.5,51.5)"/><circle cx="213.5" cy="69.5" r="4.5" transform="rotate(0,213.5,69.5)"/><circle cx="213.5" cy="78.5" r="4.5" transform="rotate(0,213.5,78.5)"/><circle cx="213.5" cy="105.5" r="4.5" transform="rotate(0,213.5,105.5)"/><circle cx="213.5" cy="114.5" r="4.5" transform="rotate(0,213.5,114.5)"/><circle cx="213.5" cy="132.5" r="4.5" transform="rotate(0,213.5,132.5)"/><circle cx="213.5" cy="150.5" r="4.5" transform="rotate(0,213.5,150.5)"/><circle cx="213.5" cy="177.5" r="4.5" transform="rotate(0,213.5,177.5)"/><circle cx="213.5" cy="195.5" r="4.5" transform="rotate(0,213.5,195.5)"/><circle cx="213.5" cy="204.5" r="4.5" transform="rotate(0,213.5,204.5)"/><circle cx="213.5" cy="222.5" r="4.5" transform="rotate(0,213.5,222.5)"/><circle cx="213.5" cy="249.5" r="4.5" transform="rotate(0,213.5,249.5)"/><circle cx="213.5" cy="276.5" r="4.5" transform="rotate(0,213.5,276.5)"/><circle cx="213.5" cy="285.5" r="4.5" transform="rotate(0,213.5,285.5)"/><circle cx="213.5" cy="303.5" r="4.5" transform="rotate(0,213.5,303.5)"/><circle cx="213.5" cy="321.5" r="4.5" transform="rotate(0,213.5,321.5)"/><circle cx="213.5" cy="330.5" r="4.5" transform="rotate(0,213.5,330.5)"/><circle cx="213.5" cy="348.5" r="4.5" transform="rotate(0,213.5,348.5)"/><circle cx="213.5" cy="357.5" r="4.5" transform="rotate(0,213.5,357.5)"/><circle cx="213.5" cy="366.5" r="4.5" transform="rotate(0,213.5,366.5)"/><circle cx="213.5" cy="384.5" r="4.5" transform="rotate(0,213.5,384.5)"/><circle cx="213.5" cy="411.5" r="4.5" transform="rotate(0,213.5,411.5)"/><circle cx="213.5" cy="420.5" r="4.5" transform="rotate(0,213.5,420.5)"/><circle cx="213.5" cy="429.5" r="4.5" transform="rotate(0,213.5,429.5)"/><circle cx="213.5" cy="438.5" r="4.5" transform="rotate(0,213.5,438.5)"/><circle cx="213.5" cy="447.5" r="4.5" transform="rotate(0,213.5,447.5)"/><circle cx="213.5" cy="456.5" r="4.5" transform="rotate(0,213.5,456.5)"/><circle cx="222.5" cy="15.5" r="4.5" transform="rotate(0,222.5,15.5)"/><circle cx="222.5" cy="42.5" r="4.5" transform="rotate(0,222.5,42.5)"/><circle cx="222.5" cy="51.5" r="4.5" transform="rotate(0,222.5,51.5)"/><circle cx="222.5" cy="78.5" r="4.5" transform="rotate(0,222.5,78.5)"/><circle cx="222.5" cy="96.5" r="4.5" transform="rotate(0,222.5,96.5)"/><circle cx="222.5" cy="105.5" r="4.5" transform="rotate(0,222.5,105.5)"/><circle cx="222.5" cy="114.5" r="4.5" transform="rotate(0,222.5,114.5)"/><circle cx="222.5" cy="123.5" r="4.5" transform="rotate(0,222.5,123.5)"/><circle cx="222.5" cy="132.5" r="4.5" transform="rotate(0,222.5,132.5)"/><circle cx="222.5" cy="141.5" r="4.5" transform="rotate(0,222.5,141.5)"/><circle cx="222.5" cy="150.5" r="4.5" transform="rotate(0,222.5,150.5)"/><circle cx="222.5" cy="159.5" r="4.5" transform="rotate(0,222.5,159.5)"/><circle cx="222.5" cy="195.5" r="4.5" transform="rotate(0,222.5,195.5)"/><circle cx="222.5" cy="204.5" r="4.5" transform="rotate(0,222.5,204.5)"/><circle cx="222.5" cy="222.5" r="4.5" transform="rotate(0,222.5,222.5)"/><circle cx="222.5" cy="231.5" r="4.5" transform="rotate(0,222.5,231.5)"/><circle cx="222.5" cy="249.5" r="4.5" transform="rotate(0,222.5,249.5)"/><circle cx="222.5" cy="285.5" r="4.5" transform="rotate(0,222.5,285.5)"/><circle cx="222.5" cy="321.5" r="4.5" transform="rotate(0,222.5,321.5)"/><circle cx="222.5" cy="339.5" r="4.5" transform="rotate(0,222.5,339.5)"/><circle cx="222.5" cy="348.5" r="4.5" transform="rotate(0,222.5,348.5)"/><circle cx="222.5" cy="357.5" r="4.5" transform="rotate(0,222.5,357.5)"/><circle cx="222.5" cy="366.5" r="4.5" transform="rotate(0,222.5,366.5)"/><circle cx="222.5" cy="375.5" r="4.5" transform="rotate(0,222.5,375.5)"/><circle cx="222.5" cy="384.5" r="4.5" transform="rotate(0,222.5,384.5)"/><circle cx="222.5" cy="411.5" r="4.5" transform="rotate(0,222.5,411.5)"/><circle cx="222.5" cy="420.5" r="4.5" transform="rotate(0,222.5,420.5)"/><circle cx="222.5" cy="438.5" r="4.5" transform="rotate(0,222.5,438.5)"/><circle cx="222.5" cy="456.5" r="4.5" transform="rotate(0,222.5,456.5)"/><circle cx="222.5" cy="465.5" r="4.5" transform="rotate(0,222.5,465.5)"/><circle cx="231.5" cy="15.5" r="4.5" transform="rotate(0,231.5,15.5)"/><circle cx="231.5" cy="24.5" r="4.5" transform="rotate(0,231.5,24.5)"/><circle cx="231.5" cy="42.5" r="4.5" transform="rotate(0,231.5,42.5)"/><circle cx="231.5" cy="51.5" r="4.5" transform="rotate(0,231.5,51.5)"/><circle cx="231.5" cy="60.5" r="4.5" transform="rotate(0,231.5,60.5)"/><circle cx="231.5" cy="69.5" r="4.5" transform="rotate(0,231.5,69.5)"/><circle cx="231.5" cy="78.5" r="4.5" transform="rotate(0,231.5,78.5)"/><circle cx="231.5" cy="87.5" r="4.5" transform="rotate(0,231.5,87.5)"/><circle cx="231.5" cy="159.5" r="4.5" transform="rotate(0,231.5,159.5)"/><circle cx="231.5" cy="177.5" r="4.5" transform="rotate(0,231.5,177.5)"/><circle cx="231.5" cy="186.5" r="4.5" transform="rotate(0,231.5,186.5)"/><circle cx="231.5" cy="213.5" r="4.5" transform="rotate(0,231.5,213.5)"/><circle cx="231.5" cy="222.5" r="4.5" transform="rotate(0,231.5,222.5)"/><circle cx="231.5" cy="231.5" r="4.5" transform="rotate(0,231.5,231.5)"/><circle cx="231.5" cy="240.5" r="4.5" transform="rotate(0,231.5,240.5)"/><circle cx="231.5" cy="249.5" r="4.5" transform="rotate(0,231.5,249.5)"/><circle cx="231.5" cy="258.5" r="4.5" transform="rotate(0,231.5,258.5)"/><circle cx="231.5" cy="267.5" r="4.5" transform="rotate(0,231.5,267.5)"/><circle cx="231.5" cy="294.5" r="4.5" transform="rotate(0,231.5,294.5)"/><circle cx="231.5" cy="303.5" r="4.5" transform="rotate(0,231.5,303.5)"/><circle cx="231.5" cy="330.5" r="4.5" transform="rotate(0,231.5,330.5)"/><circle cx="231.5" cy="339.5" r="4.5" transform="rotate(0,231.5,339.5)"/><circle cx="231.5" cy="348.5" r="4.5" transform="rotate(0,231.5,348.5)"/><circle cx="231.5" cy="375.5" r="4.5" transform="rotate(0,231.5,375.5)"/><circle cx="231.5" cy="393.5" r="4.5" transform="rotate(0,231.5,393.5)"/><circle cx="231.5" cy="402.5" r="4.5" transform="rotate(0,231.5,402.5)"/><circle cx="231.5" cy="411.5" r="4.5" transform="rotate(0,231.5,411.5)"/><circle cx="231.5" cy="420.5" r="4.5" transform="rotate(0,231.5,420.5)"/><circle cx="231.5" cy="429.5" r="4.5" transform="rotate(0,231.5,429.5)"/><circle cx="231.5" cy="438.5" r="4.5" transform="rotate(0,231.5,438.5)"/><circle cx="231.5" cy="447.5" r="4.5" transform="rotate(0,231.5,447.5)"/><circle cx="231.5" cy="456.5" r="4.5" transform="rotate(0,231.5,456.5)"/><circle cx="231.5" cy="483.5" r="4.5" transform="rotate(0,231.5,483.5)"/><circle cx="240.5" cy="15.5" r="4.5" transform="rotate(0,240.5,15.5)"/><circle cx="240.5" cy="24.5" r="4.5" transform="rotate(0,240.5,24.5)"/><circle cx="240.5" cy="33.5" r="4.5" transform="rotate(0,240.5,33.5)"/><circle cx="240.5" cy="51.5" r="4.5" transform="rotate(0,240.5,51.5)"/><circle cx="240.5" cy="87.5" r="4.5" transform="rotate(0,240.5,87.5)"/><circle cx="240.5" cy="96.5" r="4.5" transform="rotate(0,240.5,96.5)"/><circle cx="240.5" cy="105.5" r="4.5" transform="rotate(0,240.5,105.5)"/><circle cx="240.5" cy="132.5" r="4.5" transform="rotate(0,240.5,132.5)"/><circle cx="240.5" cy="150.5" r="4.5" transform="rotate(0,240.5,150.5)"/><circle cx="240.5" cy="168.5" r="4.5" transform="rotate(0,240.5,168.5)"/><circle cx="240.5" cy="177.5" r="4.5" transform="rotate(0,240.5,177.5)"/><circle cx="240.5" cy="186.5" r="4.5" transform="rotate(0,240.5,186.5)"/><circle cx="240.5" cy="204.5" r="4.5" transform="rotate(0,240.5,204.5)"/><circle cx="240.5" cy="231.5" r="4.5" transform="rotate(0,240.5,231.5)"/><circle cx="240.5" cy="267.5" r="4.5" transform="rotate(0,240.5,267.5)"/><circle cx="240.5" cy="285.5" r="4.5" transform="rotate(0,240.5,285.5)"/><circle cx="240.5" cy="294.5" r="4.5" transform="rotate(0,240.5,294.5)"/><circle cx="240.5" cy="321.5" r="4.5" transform="rotate(0,240.5,321.5)"/><circle cx="240.5" cy="330.5" r="4.5" transform="rotate(0,240.5,330.5)"/><circle cx="240.5" cy="366.5" r="4.5" transform="rotate(0,240.5,366.5)"/><circle cx="240.5" cy="411.5" r="4.5" transform="rotate(0,240.5,411.5)"/><circle cx="240.5" cy="447.5" r="4.5" transform="rotate(0,240.5,447.5)"/><circle cx="240.5" cy="456.5" r="4.5" transform="rotate(0,240.5,456.5)"/><circle cx="240.5" cy="465.5" r="4.5" transform="rotate(0,240.5,465.5)"/><circle cx="240.5" cy="474.5" r="4.5" transform="rotate(0,240.5,474.5)"/><circle cx="249.5" cy="15.5" r="4.5" transform="rotate(0,249.5,15.5)"/><circle cx="249.5" cy="42.5" r="4.5" transform="rotate(0,249.5,42.5)"/><circle cx="249.5" cy="51.5" r="4.5" transform="rotate(0,249.5,51.5)"/><circle cx="249.5" cy="69.5" r="4.5" transform="rotate(0,249.5,69.5)"/><circle cx="249.5" cy="87.5" r="4.5" transform="rotate(0,249.5,87.5)"/><circle cx="249.5" cy="96.5" r="4.5" transform="rotate(0,249.5,96.5)"/><circle cx="249.5" cy="105.5" r="4.5" transform="rotate(0,249.5,105.5)"/><circle cx="249.5" cy="159.5" r="4.5" transform="rotate(0,249.5,159.5)"/><circle cx="249.5" cy="168.5" r="4.5" transform="rotate(0,249.5,168.5)"/><circle cx="249.5" cy="186.5" r="4.5" transform="rotate(0,249.5,186.5)"/><circle cx="249.5" cy="213.5" r="4.5" transform="rotate(0,249.5,213.5)"/><circle cx="249.5" cy="231.5" r="4.5" transform="rotate(0,249.5,231.5)"/><circle cx="249.5" cy="249.5" r="4.5" transform="rotate(0,249.5,249.5)"/><circle cx="249.5" cy="267.5" r="4.5" transform="rotate(0,249.5,267.5)"/><circle cx="249.5" cy="276.5" r="4.5" transform="rotate(0,249.5,276.5)"/><circle cx="249.5" cy="294.5" r="4.5" transform="rotate(0,249.5,294.5)"/><circle cx="249.5" cy="339.5" r="4.5" transform="rotate(0,249.5,339.5)"/><circle cx="249.5" cy="348.5" r="4.5" transform="rotate(0,249.5,348.5)"/><circle cx="249.5" cy="357.5" r="4.5" transform="rotate(0,249.5,357.5)"/><circle cx="249.5" cy="375.5" r="4.5" transform="rotate(0,249.5,375.5)"/><circle cx="249.5" cy="384.5" r="4.5" transform="rotate(0,249.5,384.5)"/><circle cx="249.5" cy="402.5" r="4.5" transform="rotate(0,249.5,402.5)"/><circle cx="249.5" cy="411.5" r="4.5" transform="rotate(0,249.5,411.5)"/><circle cx="249.5" cy="429.5" r="4.5" transform="rotate(0,249.5,429.5)"/><circle cx="249.5" cy="447.5" r="4.5" transform="rotate(0,249.5,447.5)"/><circle cx="249.5" cy="465.5" r="4.5" transform="rotate(0,249.5,465.5)"/><circle cx="249.5" cy="483.5" r="4.5" transform="rotate(0,249.5,483.5)"/><circle cx="258.5" cy="15.5" r="4.5" transform="rotate(0,258.5,15.5)"/><circle cx="258.5" cy="33.5" r="4.5" transform="rotate(0,258.5,33.5)"/><circle cx="258.5" cy="51.5" r="4.5" transform="rotate(0,258.5,51.5)"/><circle cx="258.5" cy="87.5" r="4.5" transform="rotate(0,258.5,87.5)"/><circle cx="258.5" cy="105.5" r="4.5" transform="rotate(0,258.5,105.5)"/><circle cx="258.5" cy="114.5" r="4.5" transform="rotate(0,258.5,114.5)"/><circle cx="258.5" cy="123.5" r="4.5" transform="rotate(0,258.5,123.5)"/><circle cx="258.5" cy="150.5" r="4.5" transform="rotate(0,258.5,150.5)"/><circle cx="258.5" cy="159.5" r="4.5" transform="rotate(0,258.5,159.5)"/><circle cx="258.5" cy="168.5" r="4.5" transform="rotate(0,258.5,168.5)"/><circle cx="258.5" cy="195.5" r="4.5" transform="rotate(0,258.5,195.5)"/><circle cx="258.5" cy="204.5" r="4.5" transform="rotate(0,258.5,204.5)"/><circle cx="258.5" cy="213.5" r="4.5" transform="rotate(0,258.5,213.5)"/><circle cx="258.5" cy="231.5" r="4.5" transform="rotate(0,258.5,231.5)"/><circle cx="258.5" cy="267.5" r="4.5" transform="rotate(0,258.5,267.5)"/><circle cx="258.5" cy="312.5" r="4.5" transform="rotate(0,258.5,312.5)"/><circle cx="258.5" cy="330.5" r="4.5" transform="rotate(0,258.5,330.5)"/><circle cx="258.5" cy="339.5" r="4.5" transform="rotate(0,258.5,339.5)"/><circle cx="258.5" cy="366.5" r="4.5" transform="rotate(0,258.5,366.5)"/><circle cx="258.5" cy="375.5" r="4.5" transform="rotate(0,258.5,375.5)"/><circle cx="258.5" cy="384.5" r="4.5" transform="rotate(0,258.5,384.5)"/><circle cx="258.5" cy="402.5" r="4.5" transform="rotate(0,258.5,402.5)"/><circle cx="258.5" cy="411.5" r="4.5" transform="rotate(0,258.5,411.5)"/><circle cx="258.5" cy="447.5" r="4.5" transform="rotate(0,258.5,447.5)"/><circle cx="258.5" cy="465.5" r="4.5" transform="rotate(0,258.5,465.5)"/><circle cx="258.5" cy="474.5" r="4.5" transform="rotate(0,258.5,474.5)"/><circle cx="258.5" cy="483.5" r="4.5" transform="rotate(0,258.5,483.5)"/><circle cx="267.5" cy="42.5" r="4.5" transform="rotate(0,267.5,42.5)"/><circle cx="267.5" cy="51.5" r="4.5" transform="rotate(0,267.5,51.5)"/><circle cx="267.5" cy="60.5" r="4.5" transform="rotate(0,267.5,60.5)"/><circle cx="267.5" cy="69.5" r="4.5" transform="rotate(0,267.5,69.5)"/><circle cx="267.5" cy="78.5" r="4.5" transform="rotate(0,267.5,78.5)"/><circle cx="267.5" cy="87.5" r="4.5" transform="rotate(0,267.5,87.5)"/><circle cx="267.5" cy="132.5" r="4.5" transform="rotate(0,267.5,132.5)"/><circle cx="267.5" cy="141.5" r="4.5" transform="rotate(0,267.5,141.5)"/><circle cx="267.5" cy="150.5" r="4.5" transform="rotate(0,267.5,150.5)"/><circle cx="267.5" cy="168.5" r="4.5" transform="rotate(0,267.5,168.5)"/><circle cx="267.5" cy="177.5" r="4.5" transform="rotate(0,267.5,177.5)"/><circle cx="267.5" cy="204.5" r="4.5" transform="rotate(0,267.5,204.5)"/><circle cx="267.5" cy="231.5" r="4.5" transform="rotate(0,267.5,231.5)"/><circle cx="267.5" cy="240.5" r="4.5" transform="rotate(0,267.5,240.5)"/><circle cx="267.5" cy="249.5" r="4.5" transform="rotate(0,267.5,249.5)"/><circle cx="267.5" cy="258.5" r="4.5" transform="rotate(0,267.5,258.5)"/><circle cx="267.5" cy="267.5" r="4.5" transform="rotate(0,267.5,267.5)"/><circle cx="267.5" cy="276.5" r="4.5" transform="rotate(0,267.5,276.5)"/><circle cx="267.5" cy="285.5" r="4.5" transform="rotate(0,267.5,285.5)"/><circle cx="267.5" cy="294.5" r="4.5" transform="rotate(0,267.5,294.5)"/><circle cx="267.5" cy="303.5" r="4.5" transform="rotate(0,267.5,303.5)"/><circle cx="267.5" cy="312.5" r="4.5" transform="rotate(0,267.5,312.5)"/><circle cx="267.5" cy="321.5" r="4.5" transform="rotate(0,267.5,321.5)"/><circle cx="267.5" cy="330.5" r="4.5" transform="rotate(0,267.5,330.5)"/><circle cx="267.5" cy="339.5" r="4.5" transform="rotate(0,267.5,339.5)"/><circle cx="267.5" cy="348.5" r="4.5" transform="rotate(0,267.5,348.5)"/><circle cx="267.5" cy="357.5" r="4.5" transform="rotate(0,267.5,357.5)"/><circle cx="267.5" cy="366.5" r="4.5" transform="rotate(0,267.5,366.5)"/><circle cx="267.5" cy="384.5" r="4.5" transform="rotate(0,267.5,384.5)"/><circle cx="267.5" cy="393.5" r="4.5" transform="rotate(0,267.5,393.5)"/><circle cx="267.5" cy="411.5" r="4.5" transform="rotate(0,267.5,411.5)"/><circle cx="267.5" cy="420.5" r="4.5" transform="rotate(0,267.5,420.5)"/><circle cx="267.5" cy="429.5" r="4.5" transform="rotate(0,267.5,429.5)"/><circle cx="267.5" cy="438.5" r="4.5" transform="rotate(0,267.5,438.5)"/><circle cx="267.5" cy="447.5" r="4.5" transform="rotate(0,267.5,447.5)"/><circle cx="267.5" cy="456.5" r="4.5" transform="rotate(0,267.5,456.5)"/><circle cx="267.5" cy="465.5" r="4.5" transform="rotate(0,267.5,465.5)"/><circle cx="276.5" cy="15.5" r="4.5" transform="rotate(0,276.5,15.5)"/><circle cx="276.5" cy="33.5" r="4.5" transform="rotate(0,276.5,33.5)"/><circle cx="276.5" cy="42.5" r="4.5" transform="rotate(0,276.5,42.5)"/><circle cx="276.5" cy="51.5" r="4.5" transform="rotate(0,276.5,51.5)"/><circle cx="276.5" cy="87.5" r="4.5" transform="rotate(0,276.5,87.5)"/><circle cx="276.5" cy="114.5" r="4.5" transform="rotate(0,276.5,114.5)"/><circle cx="276.5" cy="159.5" r="4.5" transform="rotate(0,276.5,159.5)"/><circle cx="276.5" cy="168.5" r="4.5" transform="rotate(0,276.5,168.5)"/><circle cx="276.5" cy="177.5" r="4.5" transform="rotate(0,276.5,177.5)"/><circle cx="276.5" cy="195.5" r="4.5" transform="rotate(0,276.5,195.5)"/><circle cx="276.5" cy="204.5" r="4.5" transform="rotate(0,276.5,204.5)"/><circle cx="276.5" cy="240.5" r="4.5" transform="rotate(0,276.5,240.5)"/><circle cx="276.5" cy="249.5" r="4.5" transform="rotate(0,276.5,249.5)"/><circle cx="276.5" cy="258.5" r="4.5" transform="rotate(0,276.5,258.5)"/><circle cx="276.5" cy="267.5" r="4.5" transform="rotate(0,276.5,267.5)"/><circle cx="276.5" cy="276.5" r="4.5" transform="rotate(0,276.5,276.5)"/><circle cx="276.5" cy="303.5" r="4.5" transform="rotate(0,276.5,303.5)"/><circle cx="276.5" cy="357.5" r="4.5" transform="rotate(0,276.5,357.5)"/><circle cx="276.5" cy="366.5" r="4.5" transform="rotate(0,276.5,366.5)"/><circle cx="276.5" cy="375.5" r="4.5" transform="rotate(0,276.5,375.5)"/><circle cx="276.5" cy="420.5" r="4.5" transform="rotate(0,276.5,420.5)"/><circle cx="276.5" cy="438.5" r="4.5" transform="rotate(0,276.5,438.5)"/><circle cx="276.5" cy="465.5" r="4.5" transform="rotate(0,276.5,465.5)"/><circle cx="276.5" cy="483.5" r="4.5" transform="rotate(0,276.5,483.5)"/><circle cx="285.5" cy="69.5" r="4.5" transform="rotate(0,285.5,69.5)"/><circle cx="285.5" cy="78.5" r="4.5" transform="rotate(0,285.5,78.5)"/><circle cx="285.5" cy="96.5" r="4.5" transform="rotate(0,285.5,96.5)"/><circle cx="285.5" cy="114.5" r="4.5" transform="rotate(0,285.5,114.5)"/><circle cx="285.5" cy="141.5" r="4.5" transform="rotate(0,285.5,141.5)"/><circle cx="285.5" cy="150.5" r="4.5" transform="rotate(0,285.5,150.5)"/><circle cx="285.5" cy="177.5" r="4.5" transform="rotate(0,285.5,177.5)"/><circle cx="285.5" cy="195.5" r="4.5" transform="rotate(0,285.5,195.5)"/><circle cx="285.5" cy="222.5" r="4.5" transform="rotate(0,285.5,222.5)"/><circle cx="285.5" cy="231.5" r="4.5" transform="rotate(0,285.5,231.5)"/><circle cx="285.5" cy="240.5" r="4.5" transform="rotate(0,285.5,240.5)"/><circle cx="285.5" cy="249.5" r="4.5" transform="rotate(0,285.5,249.5)"/><circle cx="285.5" cy="276.5" r="4.5" transform="rotate(0,285.5,276.5)"/><circle cx="285.5" cy="285.5" r="4.5" transform="rotate(0,285.5,285.5)"/><circle cx="285.5" cy="303.5" r="4.5" transform="rotate(0,285.5,303.5)"/><circle cx="285.5" cy="330.5" r="4.5" transform="rotate(0,285.5,330.5)"/><circle cx="285.5" cy="375.5" r="4.5" transform="rotate(0,285.5,375.5)"/><circle cx="285.5" cy="384.5" r="4.5" transform="rotate(0,285.5,384.5)"/><circle cx="285.5" cy="393.5" r="4.5" transform="rotate(0,285.5,393.5)"/><circle cx="285.5" cy="402.5" r="4.5" transform="rotate(0,285.5,402.5)"/><circle cx="285.5" cy="411.5" r="4.5" transform="rotate(0,285.5,411.5)"/><circle cx="285.5" cy="420.5" r="4.5" transform="rotate(0,285.5,420.5)"/><circle cx="285.5" cy="429.5" r="4.5" transform="rotate(0,285.5,429.5)"/><circle cx="285.5" cy="438.5" r="4.5" transform="rotate(0,285.5,438.5)"/><circle cx="285.5" cy="474.5" r="4.5" transform="rotate(0,285.5,474.5)"/><circle cx="285.5" cy="483.5" r="4.5" transform="rotate(0,285.5,483.5)"/><circle cx="294.5" cy="33.5" r="4.5" transform="rotate(0,294.5,33.5)"/><circle cx="294.5" cy="42.5" r="4.5" transform="rotate(0,294.5,42.5)"/><circle cx="294.5" cy="51.5" r="4.5" transform="rotate(0,294.5,51.5)"/><circle cx="294.5" cy="60.5" r="4.5" transform="rotate(0,294.5,60.5)"/><circle cx="294.5" cy="87.5" r="4.5" transform="rotate(0,294.5,87.5)"/><circle cx="294.5" cy="96.5" r="4.5" transform="rotate(0,294.5,96.5)"/><circle cx="294.5" cy="114.5" r="4.5" transform="rotate(0,294.5,114.5)"/><circle cx="294.5" cy="123.5" r="4.5" transform="rotate(0,294.5,123.5)"/><circle cx="294.5" cy="141.5" r="4.5" transform="rotate(0,294.5,141.5)"/><circle cx="294.5" cy="150.5" r="4.5" transform="rotate(0,294.5,150.5)"/><circle cx="294.5" cy="159.5" r="4.5" transform="rotate(0,294.5,159.5)"/><circle cx="294.5" cy="177.5" r="4.5" transform="rotate(0,294.5,177.5)"/><circle cx="294.5" cy="186.5" r="4.5" transform="rotate(0,294.5,186.5)"/><circle cx="294.5" cy="195.5" r="4.5" transform="rotate(0,294.5,195.5)"/><circle cx="294.5" cy="213.5" r="4.5" transform="rotate(0,294.5,213.5)"/><circle cx="294.5" cy="222.5" r="4.5" transform="rotate(0,294.5,222.5)"/><circle cx="294.5" cy="240.5" r="4.5" transform="rotate(0,294.5,240.5)"/><circle cx="294.5" cy="258.5" r="4.5" transform="rotate(0,294.5,258.5)"/><circle cx="294.5" cy="276.5" r="4.5" transform="rotate(0,294.5,276.5)"/><circle cx="294.5" cy="312.5" r="4.5" transform="rotate(0,294.5,312.5)"/><circle cx="294.5" cy="321.5" r="4.5" transform="rotate(0,294.5,321.5)"/><circle cx="294.5" cy="393.5" r="4.5" transform="rotate(0,294.5,393.5)"/><circle cx="294.5" cy="402.5" r="4.5" transform="rotate(0,294.5,402.5)"/><circle cx="294.5" cy="411.5" r="4.5" transform="rotate(0,294.5,411.5)"/><circle cx="294.5" cy="447.5" r="4.5" transform="rotate(0,294.5,447.5)"/><circle cx="294.5" cy="456.5" r="4.5" transform="rotate(0,294.5,456.5)"/><circle cx="303.5" cy="15.5" r="4.5" transform="rotate(0,303.5,15.5)"/><circle cx="303.5" cy="24.5" r="4.5" transform="rotate(0,303.5,24.5)"/><circle cx="303.5" cy="33.5" r="4.5" transform="rotate(0,303.5,33.5)"/><circle cx="303.5" cy="42.5" r="4.5" transform="rotate(0,303.5,42.5)"/><circle cx="303.5" cy="51.5" r="4.5" transform="rotate(0,303.5,51.5)"/><circle cx="303.5" cy="60.5" r="4.5" transform="rotate(0,303.5,60.5)"/><circle cx="303.5" cy="69.5" r="4.5" transform="rotate(0,303.5,69.5)"/><circle cx="303.5" cy="78.5" r="4.5" transform="rotate(0,303.5,78.5)"/><circle cx="303.5" cy="96.5" r="4.5" transform="rotate(0,303.5,96.5)"/><circle cx="303.5" cy="114.5" r="4.5" transform="rotate(0,303.5,114.5)"/><circle cx="303.5" cy="132.5" r="4.5" transform="rotate(0,303.5,132.5)"/><circle cx="303.5" cy="150.5" r="4.5" transform="rotate(0,303.5,150.5)"/><circle cx="303.5" cy="168.5" r="4.5" transform="rotate(0,303.5,168.5)"/><circle cx="303.5" cy="177.5" r="4.5" transform="rotate(0,303.5,177.5)"/><circle cx="303.5" cy="186.5" r="4.5" transform="rotate(0,303.5,186.5)"/><circle cx="303.5" cy="213.5" r="4.5" transform="rotate(0,303.5,213.5)"/><circle cx="303.5" cy="222.5" r="4.5" transform="rotate(0,303.5,222.5)"/><circle cx="303.5" cy="258.5" r="4.5" transform="rotate(0,303.5,258.5)"/><circle cx="303.5" cy="267.5" r="4.5" transform="rotate(0,303.5,267.5)"/><circle cx="303.5" cy="276.5" r="4.5" transform="rotate(0,303.5,276.5)"/><circle cx="303.5" cy="294.5" r="4.5" transform="rotate(0,303.5,294.5)"/><circle cx="303.5" cy="303.5" r="4.5" transform="rotate(0,303.5,303.5)"/><circle cx="303.5" cy="339.5" r="4.5" transform="rotate(0,303.5,339.5)"/><circle cx="303.5" cy="348.5" r="4.5" transform="rotate(0,303.5,348.5)"/><circle cx="303.5" cy="357.5" r="4.5" transform="rotate(0,303.5,357.5)"/><circle cx="303.5" cy="366.5" r="4.5" transform="rotate(0,303.5,366.5)"/><circle cx="303.5" cy="375.5" r="4.5" transform="rotate(0,303.5,375.5)"/><circle cx="303.5" cy="438.5" r="4.5" transform="rotate(0,303.5,438.5)"/><circle cx="303.5" cy="465.5" r="4.5" transform="rotate(0,303.5,465.5)"/><circle cx="303.5" cy="483.5" r="4.5" transform="rotate(0,303.5,483.5)"/><circle cx="312.5" cy="24.5" r="4.5" transform="rotate(0,312.5,24.5)"/><circle cx="312.5" cy="87.5" r="4.5" transform="rotate(0,312.5,87.5)"/><circle cx="312.5" cy="114.5" r="4.5" transform="rotate(0,312.5,114.5)"/><circle cx="312.5" cy="132.5" r="4.5" transform="rotate(0,312.5,132.5)"/><circle cx="312.5" cy="141.5" r="4.5" transform="rotate(0,312.5,141.5)"/><circle cx="312.5" cy="150.5" r="4.5" transform="rotate(0,312.5,150.5)"/><circle cx="312.5" cy="159.5" r="4.5" transform="rotate(0,312.5,159.5)"/><circle cx="312.5" cy="168.5" r="4.5" transform="rotate(0,312.5,168.5)"/><circle cx="312.5" cy="177.5" r="4.5" transform="rotate(0,312.5,177.5)"/><circle cx="312.5" cy="195.5" r="4.5" transform="rotate(0,312.5,195.5)"/><circle cx="312.5" cy="204.5" r="4.5" transform="rotate(0,312.5,204.5)"/><circle cx="312.5" cy="267.5" r="4.5" transform="rotate(0,312.5,267.5)"/><circle cx="312.5" cy="276.5" r="4.5" transform="rotate(0,312.5,276.5)"/><circle cx="312.5" cy="294.5" r="4.5" transform="rotate(0,312.5,294.5)"/><circle cx="312.5" cy="303.5" r="4.5" transform="rotate(0,312.5,303.5)"/><circle cx="312.5" cy="330.5" r="4.5" transform="rotate(0,312.5,330.5)"/><circle cx="312.5" cy="384.5" r="4.5" transform="rotate(0,312.5,384.5)"/><circle cx="312.5" cy="411.5" r="4.5" transform="rotate(0,312.5,411.5)"/><circle cx="312.5" cy="465.5" r="4.5" transform="rotate(0,312.5,465.5)"/><circle cx="312.5" cy="483.5" r="4.5" transform="rotate(0,312.5,483.5)"/><circle cx="321.5" cy="24.5" r="4.5" transform="rotate(0,321.5,24.5)"/><circle cx="321.5" cy="33.5" r="4.5" transform="rotate(0,321.5,33.5)"/><circle cx="321.5" cy="42.5" r="4.5" transform="rotate(0,321.5,42.5)"/><circle cx="321.5" cy="51.5" r="4.5" transform="rotate(0,321.5,51.5)"/><circle cx="321.5" cy="60.5" r="4.5" transform="rotate(0,321.5,60.5)"/><circle cx="321.5" cy="69.5" r="4.5" transform="rotate(0,321.5,69.5)"/><circle cx="321.5" cy="96.5" r="4.5" transform="rotate(0,321.5,96.5)"/><circle cx="321.5" cy="105.5" r="4.5" transform="rotate(0,321.5,105.5)"/><circle cx="321.5" cy="141.5" r="4.5" transform="rotate(0,321.5,141.5)"/><circle cx="321.5" cy="150.5" r="4.5" transform="rotate(0,321.5,150.5)"/><circle cx="321.5" cy="168.5" r="4.5" transform="rotate(0,321.5,168.5)"/><circle cx="321.5" cy="177.5" r="4.5" transform="rotate(0,321.5,177.5)"/><circle cx="321.5" cy="186.5" r="4.5" transform="rotate(0,321.5,186.5)"/><circle cx="321.5" cy="195.5" r="4.5" transform="rotate(0,321.5,195.5)"/><circle cx="321.5" cy="231.5" r="4.5" transform="rotate(0,321.5,231.5)"/><circle cx="321.5" cy="258.5" r="4.5" transform="rotate(0,321.5,258.5)"/><circle cx="321.5" cy="276.5" r="4.5" transform="rotate(0,321.5,276.5)"/><circle cx="321.5" cy="321.5" r="4.5" transform="rotate(0,321.5,321.5)"/><circle cx="321.5" cy="339.5" r="4.5" transform="rotate(0,321.5,339.5)"/><circle cx="321.5" cy="348.5" r="4.5" transform="rotate(0,321.5,348.5)"/><circle cx="321.5" cy="366.5" r="4.5" transform="rotate(0,321.5,366.5)"/><circle cx="321.5" cy="411.5" r="4.5" transform="rotate(0,321.5,411.5)"/><circle cx="321.5" cy="420.5" r="4.5" transform="rotate(0,321.5,420.5)"/><circle cx="321.5" cy="438.5" r="4.5" transform="rotate(0,321.5,438.5)"/><circle cx="321.5" cy="474.5" r="4.5" transform="rotate(0,321.5,474.5)"/><circle cx="330.5" cy="15.5" r="4.5" transform="rotate(0,330.5,15.5)"/><circle cx="330.5" cy="51.5" r="4.5" transform="rotate(0,330.5,51.5)"/><circle cx="330.5" cy="60.5" r="4.5" transform="rotate(0,330.5,60.5)"/><circle cx="330.5" cy="87.5" r="4.5" transform="rotate(0,330.5,87.5)"/><circle cx="330.5" cy="96.5" r="4.5" transform="rotate(0,330.5,96.5)"/><circle cx="330.5" cy="132.5" r="4.5" transform="rotate(0,330.5,132.5)"/><circle cx="330.5" cy="150.5" r="4.5" transform="rotate(0,330.5,150.5)"/><circle cx="330.5" cy="159.5" r="4.5" transform="rotate(0,330.5,159.5)"/><circle cx="330.5" cy="168.5" r="4.5" transform="rotate(0,330.5,168.5)"/><circle cx="330.5" cy="177.5" r="4.5" transform="rotate(0,330.5,177.5)"/><circle cx="330.5" cy="195.5" r="4.5" transform="rotate(0,330.5,195.5)"/><circle cx="330.5" cy="204.5" r="4.5" transform="rotate(0,330.5,204.5)"/><circle cx="330.5" cy="213.5" r="4.5" transform="rotate(0,330.5,213.5)"/><circle cx="330.5" cy="222.5" r="4.5" transform="rotate(0,330.5,222.5)"/><circle cx="330.5" cy="240.5" r="4.5" transform="rotate(0,330.5,240.5)"/><circle cx="330.5" cy="285.5" r="4.5" transform="rotate(0,330.5,285.5)"/><circle cx="330.5" cy="294.5" r="4.5" transform="rotate(0,330.5,294.5)"/><circle cx="330.5" cy="312.5" r="4.5" transform="rotate(0,330.5,312.5)"/><circle cx="330.5" cy="339.5" r="4.5" transform="rotate(0,330.5,339.5)"/><circle cx="330.5" cy="366.5" r="4.5" transform="rotate(0,330.5,366.5)"/><circle cx="330.5" cy="375.5" r="4.5" transform="rotate(0,330.5,375.5)"/><circle cx="330.5" cy="384.5" r="4.5" transform="rotate(0,330.5,384.5)"/><circle cx="330.5" cy="420.5" r="4.5" transform="rotate(0,330.5,420.5)"/><circle cx="330.5" cy="429.5" r="4.5" transform="rotate(0,330.5,429.5)"/><circle cx="330.5" cy="438.5" r="4.5" transform="rotate(0,330.5,438.5)"/><circle cx="330.5" cy="465.5" r="4.5" transform="rotate(0,330.5,465.5)"/><circle cx="330.5" cy="474.5" r="4.5" transform="rotate(0,330.5,474.5)"/><circle cx="339.5" cy="42.5" r="4.5" transform="rotate(0,339.5,42.5)"/><circle cx="339.5" cy="51.5" r="4.5" transform="rotate(0,339.5,51.5)"/><circle cx="339.5" cy="69.5" r="4.5" transform="rotate(0,339.5,69.5)"/><circle cx="339.5" cy="78.5" r="4.5" transform="rotate(0,339.5,78.5)"/><circle cx="339.5" cy="105.5" r="4.5" transform="rotate(0,339.5,105.5)"/><circle cx="339.5" cy="123.5" r="4.5" transform="rotate(0,339.5,123.5)"/><circle cx="339.5" cy="132.5" r="4.5" transform="rotate(0,339.5,132.5)"/><circle cx="339.5" cy="141.5" r="4.5" transform="rotate(0,339.5,141.5)"/><circle cx="339.5" cy="159.5" r="4.5" transform="rotate(0,339.5,159.5)"/><circle cx="339.5" cy="195.5" r="4.5" transform="rotate(0,339.5,195.5)"/><circle cx="339.5" cy="204.5" r="4.5" transform="rotate(0,339.5,204.5)"/><circle cx="339.5" cy="213.5" r="4.5" transform="rotate(0,339.5,213.5)"/><circle cx="339.5" cy="222.5" r="4.5" transform="rotate(0,339.5,222.5)"/><circle cx="339.5" cy="249.5" r="4.5" transform="rotate(0,339.5,249.5)"/><circle cx="339.5" cy="258.5" r="4.5" transform="rotate(0,339.5,258.5)"/><circle cx="339.5" cy="267.5" r="4.5" transform="rotate(0,339.5,267.5)"/><circle cx="339.5" cy="303.5" r="4.5" transform="rotate(0,339.5,303.5)"/><circle cx="339.5" cy="339.5" r="4.5" transform="rotate(0,339.5,339.5)"/><circle cx="339.5" cy="375.5" r="4.5" transform="rotate(0,339.5,375.5)"/><circle cx="339.5" cy="384.5" r="4.5" transform="rotate(0,339.5,384.5)"/><circle cx="339.5" cy="393.5" r="4.5" transform="rotate(0,339.5,393.5)"/><circle cx="339.5" cy="411.5" r="4.5" transform="rotate(0,339.5,411.5)"/><circle cx="339.5" cy="420.5" r="4.5" transform="rotate(0,339.5,420.5)"/><circle cx="339.5" cy="429.5" r="4.5" transform="rotate(0,339.5,429.5)"/><circle cx="339.5" cy="456.5" r="4.5" transform="rotate(0,339.5,456.5)"/><circle cx="339.5" cy="465.5" r="4.5" transform="rotate(0,339.5,465.5)"/><circle cx="339.5" cy="474.5" r="4.5" transform="rotate(0,339.5,474.5)"/><circle cx="339.5" cy="483.5" r="4.5" transform="rotate(0,339.5,483.5)"/><circle cx="348.5" cy="15.5" r="4.5" transform="rotate(0,348.5,15.5)"/><circle cx="348.5" cy="24.5" r="4.5" transform="rotate(0,348.5,24.5)"/><circle cx="348.5" cy="33.5" r="4.5" transform="rotate(0,348.5,33.5)"/><circle cx="348.5" cy="51.5" r="4.5" transform="rotate(0,348.5,51.5)"/><circle cx="348.5" cy="87.5" r="4.5" transform="rotate(0,348.5,87.5)"/><circle cx="348.5" cy="96.5" r="4.5" transform="rotate(0,348.5,96.5)"/><circle cx="348.5" cy="123.5" r="4.5" transform="rotate(0,348.5,123.5)"/><circle cx="348.5" cy="141.5" r="4.5" transform="rotate(0,348.5,141.5)"/><circle cx="348.5" cy="168.5" r="4.5" transform="rotate(0,348.5,168.5)"/><circle cx="348.5" cy="186.5" r="4.5" transform="rotate(0,348.5,186.5)"/><circle cx="348.5" cy="195.5" r="4.5" transform="rotate(0,348.5,195.5)"/><circle cx="348.5" cy="213.5" r="4.5" transform="rotate(0,348.5,213.5)"/><circle cx="348.5" cy="249.5" r="4.5" transform="rotate(0,348.5,249.5)"/><circle cx="348.5" cy="267.5" r="4.5" transform="rotate(0,348.5,267.5)"/><circle cx="348.5" cy="294.5" r="4.5" transform="rotate(0,348.5,294.5)"/><circle cx="348.5" cy="303.5" r="4.5" transform="rotate(0,348.5,303.5)"/><circle cx="348.5" cy="321.5" r="4.5" transform="rotate(0,348.5,321.5)"/><circle cx="348.5" cy="339.5" r="4.5" transform="rotate(0,348.5,339.5)"/><circle cx="348.5" cy="348.5" r="4.5" transform="rotate(0,348.5,348.5)"/><circle cx="348.5" cy="375.5" r="4.5" transform="rotate(0,348.5,375.5)"/><circle cx="348.5" cy="402.5" r="4.5" transform="rotate(0,348.5,402.5)"/><circle cx="348.5" cy="429.5" r="4.5" transform="rotate(0,348.5,429.5)"/><circle cx="348.5" cy="474.5" r="4.5" transform="rotate(0,348.5,474.5)"/><circle cx="348.5" cy="483.5" r="4.5" transform="rotate(0,348.5,483.5)"/><circle cx="357.5" cy="15.5" r="4.5" transform="rotate(0,357.5,15.5)"/><circle cx="357.5" cy="33.5" r="4.5" transform="rotate(0,357.5,33.5)"/><circle cx="357.5" cy="42.5" r="4.5" transform="rotate(0,357.5,42.5)"/><circle cx="357.5" cy="51.5" r="4.5" transform="rotate(0,357.5,51.5)"/><circle cx="357.5" cy="69.5" r="4.5" transform="rotate(0,357.5,69.5)"/><circle cx="357.5" cy="87.5" r="4.5" transform="rotate(0,357.5,87.5)"/><circle cx="357.5" cy="105.5" r="4.5" transform="rotate(0,357.5,105.5)"/><circle cx="357.5" cy="114.5" r="4.5" transform="rotate(0,357.5,114.5)"/><circle cx="357.5" cy="123.5" r="4.5" transform="rotate(0,357.5,123.5)"/><circle cx="357.5" cy="132.5" r="4.5" transform="rotate(0,357.5,132.5)"/><circle cx="357.5" cy="141.5" r="4.5" transform="rotate(0,357.5,141.5)"/><circle cx="357.5" cy="150.5" r="4.5" transform="rotate(0,357.5,150.5)"/><circle cx="357.5" cy="195.5" r="4.5" transform="rotate(0,357.5,195.5)"/><circle cx="357.5" cy="231.5" r="4.5" transform="rotate(0,357.5,231.5)"/><circle cx="357.5" cy="240.5" r="4.5" transform="rotate(0,357.5,240.5)"/><circle cx="357.5" cy="249.5" r="4.5" transform="rotate(0,357.5,249.5)"/><circle cx="357.5" cy="276.5" r="4.5" transform="rotate(0,357.5,276.5)"/><circle cx="357.5" cy="285.5" r="4.5" transform="rotate(0,357.5,285.5)"/><circle cx="357.5" cy="312.5" r="4.5" transform="rotate(0,357.5,312.5)"/><circle cx="357.5" cy="339.5" r="4.5" transform="rotate(0,357.5,339.5)"/><circle cx="357.5" cy="357.5" r="4.5" transform="rotate(0,357.5,357.5)"/><circle cx="357.5" cy="429.5" r="4.5" transform="rotate(0,357.5,429.5)"/><circle cx="357.5" cy="447.5" r="4.5" transform="rotate(0,357.5,447.5)"/><circle cx="357.5" cy="456.5" r="4.5" transform="rotate(0,357.5,456.5)"/><circle cx="357.5" cy="465.5" r="4.5" transform="rotate(0,357.5,465.5)"/><circle cx="357.5" cy="474.5" r="4.5" transform="rotate(0,357.5,474.5)"/><circle cx="357.5" cy="483.5" r="4.5" transform="rotate(0,357.5,483.5)"/><circle cx="366.5" cy="15.5" r="4.5" transform="rotate(0,366.5,15.5)"/><circle cx="366.5" cy="24.5" r="4.5" transform="rotate(0,366.5,24.5)"/><circle cx="366.5" cy="51.5" r="4.5" transform="rotate(0,366.5,51.5)"/><circle cx="366.5" cy="78.5" r="4.5" transform="rotate(0,366.5,78.5)"/><circle cx="366.5" cy="87.5" r="4.5" transform="rotate(0,366.5,87.5)"/><circle cx="366.5" cy="105.5" r="4.5" transform="rotate(0,366.5,105.5)"/><circle cx="366.5" cy="132.5" r="4.5" transform="rotate(0,366.5,132.5)"/><circle cx="366.5" cy="141.5" r="4.5" transform="rotate(0,366.5,141.5)"/><circle cx="366.5" cy="168.5" r="4.5" transform="rotate(0,366.5,168.5)"/><circle cx="366.5" cy="177.5" r="4.5" transform="rotate(0,366.5,177.5)"/><circle cx="366.5" cy="186.5" r="4.5" transform="rotate(0,366.5,186.5)"/><circle cx="366.5" cy="195.5" r="4.5" transform="rotate(0,366.5,195.5)"/><circle cx="366.5" cy="213.5" r="4.5" transform="rotate(0,366.5,213.5)"/><circle cx="366.5" cy="222.5" r="4.5" transform="rotate(0,366.5,222.5)"/><circle cx="366.5" cy="258.5" r="4.5" transform="rotate(0,366.5,258.5)"/><circle cx="366.5" cy="267.5" r="4.5" transform="rotate(0,366.5,267.5)"/><circle cx="366.5" cy="285.5" r="4.5" transform="rotate(0,366.5,285.5)"/><circle cx="366.5" cy="294.5" r="4.5" transform="rotate(0,366.5,294.5)"/><circle cx="366.5" cy="303.5" r="4.5" transform="rotate(0,366.5,303.5)"/><circle cx="366.5" cy="321.5" r="4.5" transform="rotate(0,366.5,321.5)"/><circle cx="366.5" cy="330.5" r="4.5" transform="rotate(0,366.5,330.5)"/><circle cx="366.5" cy="339.5" r="4.5" transform="rotate(0,366.5,339.5)"/><circle cx="366.5" cy="348.5" r="4.5" transform="rotate(0,366.5,348.5)"/><circle cx="366.5" cy="366.5" r="4.5" transform="rotate(0,366.5,366.5)"/><circle cx="366.5" cy="375.5" r="4.5" transform="rotate(0,366.5,375.5)"/><circle cx="366.5" cy="411.5" r="4.5" transform="rotate(0,366.5,411.5)"/><circle cx="366.5" cy="420.5" r="4.5" transform="rotate(0,366.5,420.5)"/><circle cx="366.5" cy="429.5" r="4.5" transform="rotate(0,366.5,429.5)"/><circle cx="366.5" cy="438.5" r="4.5" transform="rotate(0,366.5,438.5)"/><circle cx="366.5" cy="447.5" r="4.5" transform="rotate(0,366.5,447.5)"/><circle cx="366.5" cy="456.5" r="4.5" transform="rotate(0,366.5,456.5)"/><circle cx="366.5" cy="483.5" r="4.5" transform="rotate(0,366.5,483.5)"/><circle cx="375.5" cy="33.5" r="4.5" transform="rotate(0,375.5,33.5)"/><circle cx="375.5" cy="69.5" r="4.5" transform="rotate(0,375.5,69.5)"/><circle cx="375.5" cy="87.5" r="4.5" transform="rotate(0,375.5,87.5)"/><circle cx="375.5" cy="105.5" r="4.5" transform="rotate(0,375.5,105.5)"/><circle cx="375.5" cy="114.5" r="4.5" transform="rotate(0,375.5,114.5)"/><circle cx="375.5" cy="123.5" r="4.5" transform="rotate(0,375.5,123.5)"/><circle cx="375.5" cy="132.5" r="4.5" transform="rotate(0,375.5,132.5)"/><circle cx="375.5" cy="150.5" r="4.5" transform="rotate(0,375.5,150.5)"/><circle cx="375.5" cy="168.5" r="4.5" transform="rotate(0,375.5,168.5)"/><circle cx="375.5" cy="213.5" r="4.5" transform="rotate(0,375.5,213.5)"/><circle cx="375.5" cy="240.5" r="4.5" transform="rotate(0,375.5,240.5)"/><circle cx="375.5" cy="249.5" r="4.5" transform="rotate(0,375.5,249.5)"/><circle cx="375.5" cy="285.5" r="4.5" transform="rotate(0,375.5,285.5)"/><circle cx="375.5" cy="303.5" r="4.5" transform="rotate(0,375.5,303.5)"/><circle cx="375.5" cy="330.5" r="4.5" transform="rotate(0,375.5,330.5)"/><circle cx="375.5" cy="339.5" r="4.5" transform="rotate(0,375.5,339.5)"/><circle cx="375.5" cy="348.5" r="4.5" transform="rotate(0,375.5,348.5)"/><circle cx="375.5" cy="402.5" r="4.5" transform="rotate(0,375.5,402.5)"/><circle cx="375.5" cy="420.5" r="4.5" transform="rotate(0,375.5,420.5)"/><circle cx="375.5" cy="438.5" r="4.5" transform="rotate(0,375.5,438.5)"/><circle cx="375.5" cy="447.5" r="4.5" transform="rotate(0,375.5,447.5)"/><circle cx="375.5" cy="456.5" r="4.5" transform="rotate(0,375.5,456.5)"/><circle cx="375.5" cy="474.5" r="4.5" transform="rotate(0,375.5,474.5)"/><circle cx="375.5" cy="483.5" r="4.5" transform="rotate(0,375.5,483.5)"/><circle cx="384.5" cy="15.5" r="4.5" transform="rotate(0,384.5,15.5)"/><circle cx="384.5" cy="42.5" r="4.5" transform="rotate(0,384.5,42.5)"/><circle cx="384.5" cy="78.5" r="4.5" transform="rotate(0,384.5,78.5)"/><circle cx="384.5" cy="96.5" r="4.5" transform="rotate(0,384.5,96.5)"/><circle cx="384.5" cy="114.5" r="4.5" transform="rotate(0,384.5,114.5)"/><circle cx="384.5" cy="123.5" r="4.5" transform="rotate(0,384.5,123.5)"/><circle cx="384.5" cy="132.5" r="4.5" transform="rotate(0,384.5,132.5)"/><circle cx="384.5" cy="204.5" r="4.5" transform="rotate(0,384.5,204.5)"/><circle cx="384.5" cy="231.5" r="4.5" transform="rotate(0,384.5,231.5)"/><circle cx="384.5" cy="249.5" r="4.5" transform="rotate(0,384.5,249.5)"/><circle cx="384.5" cy="258.5" r="4.5" transform="rotate(0,384.5,258.5)"/><circle cx="384.5" cy="267.5" r="4.5" transform="rotate(0,384.5,267.5)"/><circle cx="384.5" cy="276.5" r="4.5" transform="rotate(0,384.5,276.5)"/><circle cx="384.5" cy="285.5" r="4.5" transform="rotate(0,384.5,285.5)"/><circle cx="384.5" cy="312.5" r="4.5" transform="rotate(0,384.5,312.5)"/><circle cx="384.5" cy="330.5" r="4.5" transform="rotate(0,384.5,330.5)"/><circle cx="384.5" cy="348.5" r="4.5" transform="rotate(0,384.5,348.5)"/><circle cx="384.5" cy="357.5" r="4.5" transform="rotate(0,384.5,357.5)"/><circle cx="384.5" cy="375.5" r="4.5" transform="rotate(0,384.5,375.5)"/><circle cx="384.5" cy="384.5" r="4.5" transform="rotate(0,384.5,384.5)"/><circle cx="384.5" cy="411.5" r="4.5" transform="rotate(0,384.5,411.5)"/><circle cx="384.5" cy="420.5" r="4.5" transform="rotate(0,384.5,420.5)"/><circle cx="384.5" cy="483.5" r="4.5" transform="rotate(0,384.5,483.5)"/><circle cx="393.5" cy="15.5" r="4.5" transform="rotate(0,393.5,15.5)"/><circle cx="393.5" cy="24.5" r="4.5" transform="rotate(0,393.5,24.5)"/><circle cx="393.5" cy="42.5" r="4.5" transform="rotate(0,393.5,42.5)"/><circle cx="393.5" cy="51.5" r="4.5" transform="rotate(0,393.5,51.5)"/><circle cx="393.5" cy="60.5" r="4.5" transform="rotate(0,393.5,60.5)"/><circle cx="393.5" cy="69.5" r="4.5" transform="rotate(0,393.5,69.5)"/><circle cx="393.5" cy="78.5" r="4.5" transform="rotate(0,393.5,78.5)"/><circle cx="393.5" cy="87.5" r="4.5" transform="rotate(0,393.5,87.5)"/><circle cx="393.5" cy="123.5" r="4.5" transform="rotate(0,393.5,123.5)"/><circle cx="393.5" cy="132.5" r="4.5" transform="rotate(0,393.5,132.5)"/><circle cx="393.5" cy="141.5" r="4.5" transform="rotate(0,393.5,141.5)"/><circle cx="393.5" cy="150.5" r="4.5" transform="rotate(0,393.5,150.5)"/><circle cx="393.5" cy="204.5" r="4.5" transform="rotate(0,393.5,204.5)"/><circle cx="393.5" cy="213.5" r="4.5" transform="rotate(0,393.5,213.5)"/><circle cx="393.5" cy="231.5" r="4.5" transform="rotate(0,393.5,231.5)"/><circle cx="393.5" cy="240.5" r="4.5" transform="rotate(0,393.5,240.5)"/><circle cx="393.5" cy="249.5" r="4.5" transform="rotate(0,393.5,249.5)"/><circle cx="393.5" cy="258.5" r="4.5" transform="rotate(0,393.5,258.5)"/><circle cx="393.5" cy="276.5" r="4.5" transform="rotate(0,393.5,276.5)"/><circle cx="393.5" cy="285.5" r="4.5" transform="rotate(0,393.5,285.5)"/><circle cx="393.5" cy="294.5" r="4.5" transform="rotate(0,393.5,294.5)"/><circle cx="393.5" cy="321.5" r="4.5" transform="rotate(0,393.5,321.5)"/><circle cx="393.5" cy="348.5" r="4.5" transform="rotate(0,393.5,348.5)"/><circle cx="393.5" cy="366.5" r="4.5" transform="rotate(0,393.5,366.5)"/><circle cx="393.5" cy="420.5" r="4.5" transform="rotate(0,393.5,420.5)"/><circle cx="393.5" cy="429.5" r="4.5" transform="rotate(0,393.5,429.5)"/><circle cx="393.5" cy="438.5" r="4.5" transform="rotate(0,393.5,438.5)"/><circle cx="393.5" cy="447.5" r="4.5" transform="rotate(0,393.5,447.5)"/><circle cx="393.5" cy="474.5" r="4.5" transform="rotate(0,393.5,474.5)"/><circle cx="393.5" cy="483.5" r="4.5" transform="rotate(0,393.5,483.5)"/><circle cx="402.5" cy="24.5" r="4.5" transform="rotate(0,402.5,24.5)"/><circle cx="402.5" cy="33.5" r="4.5" transform="rotate(0,402.5,33.5)"/><circle cx="402.5" cy="78.5" r="4.5" transform="rotate(0,402.5,78.5)"/><circle cx="402.5" cy="96.5" r="4.5" transform="rotate(0,402.5,96.5)"/><circle cx="402.5" cy="114.5" r="4.5" transform="rotate(0,402.5,114.5)"/><circle cx="402.5" cy="132.5" r="4.5" transform="rotate(0,402.5,132.5)"/><circle cx="402.5" cy="186.5" r="4.5" transform="rotate(0,402.5,186.5)"/><circle cx="402.5" cy="195.5" r="4.5" transform="rotate(0,402.5,195.5)"/><circle cx="402.5" cy="213.5" r="4.5" transform="rotate(0,402.5,213.5)"/><circle cx="402.5" cy="231.5" r="4.5" transform="rotate(0,402.5,231.5)"/><circle cx="402.5" cy="267.5" r="4.5" transform="rotate(0,402.5,267.5)"/><circle cx="402.5" cy="303.5" r="4.5" transform="rotate(0,402.5,303.5)"/><circle cx="402.5" cy="330.5" r="4.5" transform="rotate(0,402.5,330.5)"/><circle cx="402.5" cy="339.5" r="4.5" transform="rotate(0,402.5,339.5)"/><circle cx="402.5" cy="366.5" r="4.5" transform="rotate(0,402.5,366.5)"/><circle cx="402.5" cy="375.5" r="4.5" transform="rotate(0,402.5,375.5)"/><circle cx="402.5" cy="402.5" r="4.5" transform="rotate(0,402.5,402.5)"/><circle cx="402.5" cy="420.5" r="4.5" transform="rotate(0,402.5,420.5)"/><circle cx="402.5" cy="438.5" r="4.5" transform="rotate(0,402.5,438.5)"/><circle cx="402.5" cy="456.5" r="4.5" transform="rotate(0,402.5,456.5)"/><circle cx="402.5" cy="474.5" r="4.5" transform="rotate(0,402.5,474.5)"/><circle cx="411.5" cy="42.5" r="4.5" transform="rotate(0,411.5,42.5)"/><circle cx="411.5" cy="69.5" r="4.5" transform="rotate(0,411.5,69.5)"/><circle cx="411.5" cy="87.5" r="4.5" transform="rotate(0,411.5,87.5)"/><circle cx="411.5" cy="96.5" r="4.5" transform="rotate(0,411.5,96.5)"/><circle cx="411.5" cy="105.5" r="4.5" transform="rotate(0,411.5,105.5)"/><circle cx="411.5" cy="114.5" r="4.5" transform="rotate(0,411.5,114.5)"/><circle cx="411.5" cy="123.5" r="4.5" transform="rotate(0,411.5,123.5)"/><circle cx="411.5" cy="132.5" r="4.5" transform="rotate(0,411.5,132.5)"/><circle cx="411.5" cy="159.5" r="4.5" transform="rotate(0,411.5,159.5)"/><circle cx="411.5" cy="186.5" r="4.5" transform="rotate(0,411.5,186.5)"/><circle cx="411.5" cy="213.5" r="4.5" transform="rotate(0,411.5,213.5)"/><circle cx="411.5" cy="222.5" r="4.5" transform="rotate(0,411.5,222.5)"/><circle cx="411.5" cy="231.5" r="4.5" transform="rotate(0,411.5,231.5)"/><circle cx="411.5" cy="240.5" r="4.5" transform="rotate(0,411.5,240.5)"/><circle cx="411.5" cy="249.5" r="4.5" transform="rotate(0,411.5,249.5)"/><circle cx="411.5" cy="258.5" r="4.5" transform="rotate(0,411.5,258.5)"/><circle cx="411.5" cy="267.5" r="4.5" transform="rotate(0,411.5,267.5)"/><circle cx="411.5" cy="276.5" r="4.5" transform="rotate(0,411.5,276.5)"/><circle cx="411.5" cy="285.5" r="4.5" transform="rotate(0,411.5,285.5)"/><circle cx="411.5" cy="294.5" r="4.5" transform="rotate(0,411.5,294.5)"/><circle cx="411.5" cy="339.5" r="4.5" transform="rotate(0,411.5,339.5)"/><circle cx="411.5" cy="366.5" r="4.5" transform="rotate(0,411.5,366.5)"/><circle cx="411.5" cy="393.5" r="4.5" transform="rotate(0,411.5,393.5)"/><circle cx="411.5" cy="411.5" r="4.5" transform="rotate(0,411.5,411.5)"/><circle cx="411.5" cy="420.5" r="4.5" transform="rotate(0,411.5,420.5)"/><circle cx="411.5" cy="429.5" r="4.5" transform="rotate(0,411.5,429.5)"/><circle cx="411.5" cy="438.5" r="4.5" transform="rotate(0,411.5,438.5)"/><circle cx="411.5" cy="447.5" r="4.5" transform="rotate(0,411.5,447.5)"/><circle cx="411.5" cy="465.5" r="4.5" transform="rotate(0,411.5,465.5)"/><circle cx="411.5" cy="474.5" r="4.5" transform="rotate(0,411.5,474.5)"/><circle cx="420.5" cy="87.5" r="4.5" transform="rotate(0,420.5,87.5)"/><circle cx="420.5" cy="96.5" r="4.5" transform="rotate(0,420.5,96.5)"/><circle cx="420.5" cy="105.5" r="4.5" transform="rotate(0,420.5,105.5)"/><circle cx="420.5" cy="123.5" r="4.5" transform="rotate(0,420.5,123.5)"/><circle cx="420.5" cy="132.5" r="4.5" transform="rotate(0,420.5,132.5)"/><circle cx="420.5" cy="141.5" r="4.5" transform="rotate(0,420.5,141.5)"/><circle cx="420.5" cy="150.5" r="4.5" transform="rotate(0,420.5,150.5)"/><circle cx="420.5" cy="168.5" r="4.5" transform="rotate(0,420.5,168.5)"/><circle cx="420.5" cy="195.5" r="4.5" transform="rotate(0,420.5,195.5)"/><circle cx="420.5" cy="231.5" r="4.5" transform="rotate(0,420.5,231.5)"/><circle cx="420.5" cy="267.5" r="4.5" transform="rotate(0,420.5,267.5)"/><circle cx="420.5" cy="276.5" r="4.5" transform="rotate(0,420.5,276.5)"/><circle cx="420.5" cy="285.5" r="4.5" transform="rotate(0,420.5,285.5)"/><circle cx="420.5" cy="303.5" r="4.5" transform="rotate(0,420.5,303.5)"/><circle cx="420.5" cy="321.5" r="4.5" transform="rotate(0,420.5,321.5)"/><circle cx="420.5" cy="339.5" r="4.5" transform="rotate(0,420.5,339.5)"/><circle cx="420.5" cy="366.5" r="4.5" transform="rotate(0,420.5,366.5)"/><circle cx="420.5" cy="375.5" r="4.5" transform="rotate(0,420.5,375.5)"/><circle cx="420.5" cy="411.5" r="4.5" transform="rotate(0,420.5,411.5)"/><circle cx="420.5" cy="447.5" r="4.5" transform="rotate(0,420.5,447.5)"/><circle cx="420.5" cy="456.5" r="4.5" transform="rotate(0,420.5,456.5)"/><circle cx="420.5" cy="483.5" r="4.5" transform="rotate(0,420.5,483.5)"/><circle cx="429.5" cy="87.5" r="4.5" transform="rotate(0,429.5,87.5)"/><circle cx="429.5" cy="132.5" r="4.5" transform="rotate(0,429.5,132.5)"/><circle cx="429.5" cy="150.5" r="4.5" transform="rotate(0,429.5,150.5)"/><circle cx="429.5" cy="195.5" r="4.5" transform="rotate(0,429.5,195.5)"/><circle cx="429.5" cy="204.5" r="4.5" transform="rotate(0,429.5,204.5)"/><circle cx="429.5" cy="222.5" r="4.5" transform="rotate(0,429.5,222.5)"/><circle cx="429.5" cy="231.5" r="4.5" transform="rotate(0,429.5,231.5)"/><circle cx="429.5" cy="249.5" r="4.5" transform="rotate(0,429.5,249.5)"/><circle cx="429.5" cy="267.5" r="4.5" transform="rotate(0,429.5,267.5)"/><circle cx="429.5" cy="285.5" r="4.5" transform="rotate(0,429.5,285.5)"/><circle cx="429.5" cy="330.5" r="4.5" transform="rotate(0,429.5,330.5)"/><circle cx="429.5" cy="348.5" r="4.5" transform="rotate(0,429.5,348.5)"/><circle cx="429.5" cy="357.5" r="4.5" transform="rotate(0,429.5,357.5)"/><circle cx="429.5" cy="366.5" r="4.5" transform="rotate(0,429.5,366.5)"/><circle cx="429.5" cy="375.5" r="4.5" transform="rotate(0,429.5,375.5)"/><circle cx="429.5" cy="384.5" r="4.5" transform="rotate(0,429.5,384.5)"/><circle cx="429.5" cy="402.5" r="4.5" transform="rotate(0,429.5,402.5)"/><circle cx="429.5" cy="411.5" r="4.5" transform="rotate(0,429.5,411.5)"/><circle cx="429.5" cy="429.5" r="4.5" transform="rotate(0,429.5,429.5)"/><circle cx="429.5" cy="447.5" r="4.5" transform="rotate(0,429.5,447.5)"/><circle cx="429.5" cy="465.5" r="4.5" transform="rotate(0,429.5,465.5)"/><circle cx="429.5" cy="474.5" r="4.5" transform="rotate(0,429.5,474.5)"/><circle cx="438.5" cy="87.5" r="4.5" transform="rotate(0,438.5,87.5)"/><circle cx="438.5" cy="96.5" r="4.5" transform="rotate(0,438.5,96.5)"/><circle cx="438.5" cy="105.5" r="4.5" transform="rotate(0,438.5,105.5)"/><circle cx="438.5" cy="132.5" r="4.5" transform="rotate(0,438.5,132.5)"/><circle cx="438.5" cy="150.5" r="4.5" transform="rotate(0,438.5,150.5)"/><circle cx="438.5" cy="159.5" r="4.5" transform="rotate(0,438.5,159.5)"/><circle cx="438.5" cy="168.5" r="4.5" transform="rotate(0,438.5,168.5)"/><circle cx="438.5" cy="186.5" r="4.5" transform="rotate(0,438.5,186.5)"/><circle cx="438.5" cy="195.5" r="4.5" transform="rotate(0,438.5,195.5)"/><circle cx="438.5" cy="213.5" r="4.5" transform="rotate(0,438.5,213.5)"/><circle cx="438.5" cy="222.5" r="4.5" transform="rotate(0,438.5,222.5)"/><circle cx="438.5" cy="231.5" r="4.5" transform="rotate(0,438.5,231.5)"/><circle cx="438.5" cy="267.5" r="4.5" transform="rotate(0,438.5,267.5)"/><circle cx="438.5" cy="276.5" r="4.5" transform="rotate(0,438.5,276.5)"/><circle cx="438.5" cy="285.5" r="4.5" transform="rotate(0,438.5,285.5)"/><circle cx="438.5" cy="294.5" r="4.5" transform="rotate(0,438.5,294.5)"/><circle cx="438.5" cy="312.5" r="4.5" transform="rotate(0,438.5,312.5)"/><circle cx="438.5" cy="339.5" r="4.5" transform="rotate(0,438.5,339.5)"/><circle cx="438.5" cy="348.5" r="4.5" transform="rotate(0,438.5,348.5)"/><circle cx="438.5" cy="375.5" r="4.5" transform="rotate(0,438.5,375.5)"/><circle cx="438.5" cy="384.5" r="4.5" transform="rotate(0,438.5,384.5)"/><circle cx="438.5" cy="411.5" r="4.5" transform="rotate(0,438.5,411.5)"/><circle cx="438.5" cy="447.5" r="4.5" transform="rotate(0,438.5,447.5)"/><circle cx="438.5" cy="465.5" r="4.5" transform="rotate(0,438.5,465.5)"/><circle cx="438.5" cy="474.5" r="4.5" transform="rotate(0,438.5,474.5)"/><circle cx="438.5" cy="483.5" r="4.5" transform="rotate(0,438.5,483.5)"/><circle cx="447.5" cy="105.5" r="4.5" transform="rotate(0,447.5,105.5)"/><circle cx="447.5" cy="114.5" r="4.5" transform="rotate(0,447.5,114.5)"/><circle cx="447.5" cy="132.5" r="4.5" transform="rotate(0,447.5,132.5)"/><circle cx="447.5" cy="141.5" r="4.5" transform="rotate(0,447.5,141.5)"/><circle cx="447.5" cy="159.5" r="4.5" transform="rotate(0,447.5,159.5)"/><circle cx="447.5" cy="168.5" r="4.5" transform="rotate(0,447.5,168.5)"/><circle cx="447.5" cy="177.5" r="4.5" transform="rotate(0,447.5,177.5)"/><circle cx="447.5" cy="204.5" r="4.5" transform="rotate(0,447.5,204.5)"/><circle cx="447.5" cy="222.5" r="4.5" transform="rotate(0,447.5,222.5)"/><circle cx="447.5" cy="231.5" r="4.5" transform="rotate(0,447.5,231.5)"/><circle cx="447.5" cy="240.5" r="4.5" transform="rotate(0,447.5,240.5)"/><circle cx="447.5" cy="249.5" r="4.5" transform="rotate(0,447.5,249.5)"/><circle cx="447.5" cy="258.5" r="4.5" transform="rotate(0,447.5,258.5)"/><circle cx="447.5" cy="267.5" r="4.5" transform="rotate(0,447.5,267.5)"/><circle cx="447.5" cy="294.5" r="4.5" transform="rotate(0,447.5,294.5)"/><circle cx="447.5" cy="303.5" r="4.5" transform="rotate(0,447.5,303.5)"/><circle cx="447.5" cy="312.5" r="4.5" transform="rotate(0,447.5,312.5)"/><circle cx="447.5" cy="339.5" r="4.5" transform="rotate(0,447.5,339.5)"/><circle cx="447.5" cy="357.5" r="4.5" transform="rotate(0,447.5,357.5)"/><circle cx="447.5" cy="366.5" r="4.5" transform="rotate(0,447.5,366.5)"/><circle cx="447.5" cy="375.5" r="4.5" transform="rotate(0,447.5,375.5)"/><circle cx="447.5" cy="384.5" r="4.5" transform="rotate(0,447.5,384.5)"/><circle cx="447.5" cy="393.5" r="4.5" transform="rotate(0,447.5,393.5)"/><circle cx="447.5" cy="411.5" r="4.5" transform="rotate(0,447.5,411.5)"/><circle cx="447.5" cy="420.5" r="4.5" transform="rotate(0,447.5,420.5)"/><circle cx="447.5" cy="429.5" r="4.5" transform="rotate(0,447.5,429.5)"/><circle cx="447.5" cy="438.5" r="4.5" transform="rotate(0,447.5,438.5)"/><circle cx="447.5" cy="447.5" r="4.5" transform="rotate(0,447.5,447.5)"/><circle cx="447.5" cy="456.5" r="4.5" transform="rotate(0,447.5,456.5)"/><circle cx="447.5" cy="483.5" r="4.5" transform="rotate(0,447.5,483.5)"/><circle cx="456.5" cy="87.5" r="4.5" transform="rotate(0,456.5,87.5)"/><circle cx="456.5" cy="114.5" r="4.5" transform="rotate(0,456.5,114.5)"/><circle cx="456.5" cy="123.5" r="4.5" transform="rotate(0,456.5,123.5)"/><circle cx="456.5" cy="132.5" r="4.5" transform="rotate(0,456.5,132.5)"/><circle cx="456.5" cy="150.5" r="4.5" transform="rotate(0,456.5,150.5)"/><circle cx="456.5" cy="186.5" r="4.5" transform="rotate(0,456.5,186.5)"/><circle cx="456.5" cy="195.5" r="4.5" transform="rotate(0,456.5,195.5)"/><circle cx="456.5" cy="222.5" r="4.5" transform="rotate(0,456.5,222.5)"/><circle cx="456.5" cy="231.5" r="4.5" transform="rotate(0,456.5,231.5)"/><circle cx="456.5" cy="240.5" r="4.5" transform="rotate(0,456.5,240.5)"/><circle cx="456.5" cy="267.5" r="4.5" transform="rotate(0,456.5,267.5)"/><circle cx="456.5" cy="276.5" r="4.5" transform="rotate(0,456.5,276.5)"/><circle cx="456.5" cy="294.5" r="4.5" transform="rotate(0,456.5,294.5)"/><circle cx="456.5" cy="321.5" r="4.5" transform="rotate(0,456.5,321.5)"/><circle cx="456.5" cy="330.5" r="4.5" transform="rotate(0,456.5,330.5)"/><circle cx="456.5" cy="339.5" r="4.5" transform="rotate(0,456.5,339.5)"/><circle cx="456.5" cy="348.5" r="4.5" transform="rotate(0,456.5,348.5)"/><circle cx="456.5" cy="375.5" r="4.5" transform="rotate(0,456.5,375.5)"/><circle cx="456.5" cy="402.5" r="4.5" transform="rotate(0,456.5,402.5)"/><circle cx="456.5" cy="420.5" r="4.5" transform="rotate(0,456.5,420.5)"/><circle cx="456.5" cy="438.5" r="4.5" transform="rotate(0,456.5,438.5)"/><circle cx="456.5" cy="447.5" r="4.5" transform="rotate(0,456.5,447.5)"/><circle cx="456.5" cy="474.5" r="4.5" transform="rotate(0,456.5,474.5)"/><circle cx="465.5" cy="105.5" r="4.5" transform="rotate(0,465.5,105.5)"/><circle cx="465.5" cy="114.5" r="4.5" transform="rotate(0,465.5,114.5)"/><circle cx="465.5" cy="123.5" r="4.5" transform="rotate(0,465.5,123.5)"/><circle cx="465.5" cy="141.5" r="4.5" transform="rotate(0,465.5,141.5)"/><circle cx="465.5" cy="150.5" r="4.5" transform="rotate(0,465.5,150.5)"/><circle cx="465.5" cy="177.5" r="4.5" transform="rotate(0,465.5,177.5)"/><circle cx="465.5" cy="186.5" r="4.5" transform="rotate(0,465.5,186.5)"/><circle cx="465.5" cy="222.5" r="4.5" transform="rotate(0,465.5,222.5)"/><circle cx="465.5" cy="240.5" r="4.5" transform="rotate(0,465.5,240.5)"/><circle cx="465.5" cy="249.5" r="4.5" transform="rotate(0,465.5,249.5)"/><circle cx="465.5" cy="267.5" r="4.5" transform="rotate(0,465.5,267.5)"/><circle cx="465.5" cy="330.5" r="4.5" transform="rotate(0,465.5,330.5)"/><circle cx="465.5" cy="348.5" r="4.5" transform="rotate(0,465.5,348.5)"/><circle cx="465.5" cy="357.5" r="4.5" transform="rotate(0,465.5,357.5)"/><circle cx="465.5" cy="366.5" r="4.5" transform="rotate(0,465.5,366.5)"/><circle cx="465.5" cy="375.5" r="4.5" transform="rotate(0,465.5,375.5)"/><circle cx="465.5" cy="384.5" r="4.5" transform="rotate(0,465.5,384.5)"/><circle cx="465.5" cy="420.5" r="4.5" transform="rotate(0,465.5,420.5)"/><circle cx="465.5" cy="429.5" r="4.5" transform="rotate(0,465.5,429.5)"/><circle cx="465.5" cy="438.5" r="4.5" transform="rotate(0,465.5,438.5)"/><circle cx="465.5" cy="447.5" r="4.5" transform="rotate(0,465.5,447.5)"/><circle cx="465.5" cy="456.5" r="4.5" transform="rotate(0,465.5,456.5)"/><circle cx="465.5" cy="465.5" r="4.5" transform="rotate(0,465.5,465.5)"/><circle cx="465.5" cy="474.5" r="4.5" transform="rotate(0,465.5,474.5)"/><circle cx="465.5" cy="483.5" r="4.5" transform="rotate(0,465.5,483.5)"/><circle cx="474.5" cy="87.5" r="4.5" transform="rotate(0,474.5,87.5)"/><circle cx="474.5" cy="96.5" r="4.5" transform="rotate(0,474.5,96.5)"/><circle cx="474.5" cy="105.5" r="4.5" transform="rotate(0,474.5,105.5)"/><circle cx="474.5" cy="186.5" r="4.5" transform="rotate(0,474.5,186.5)"/><circle cx="474.5" cy="204.5" r="4.5" transform="rotate(0,474.5,204.5)"/><circle cx="474.5" cy="258.5" r="4.5" transform="rotate(0,474.5,258.5)"/><circle cx="474.5" cy="267.5" r="4.5" transform="rotate(0,474.5,267.5)"/><circle cx="474.5" cy="285.5" r="4.5" transform="rotate(0,474.5,285.5)"/><circle cx="474.5" cy="294.5" r="4.5" transform="rotate(0,474.5,294.5)"/><circle cx="474.5" cy="303.5" r="4.5" transform="rotate(0,474.5,303.5)"/><circle cx="474.5" cy="321.5" r="4.5" transform="rotate(0,474.5,321.5)"/><circle cx="474.5" cy="348.5" r="4.5" transform="rotate(0,474.5,348.5)"/><circle cx="474.5" cy="366.5" r="4.5" transform="rotate(0,474.5,366.5)"/><circle cx="474.5" cy="375.5" r="4.5" transform="rotate(0,474.5,375.5)"/><circle cx="474.5" cy="456.5" r="4.5" transform="rotate(0,474.5,456.5)"/><circle cx="474.5" cy="474.5" r="4.5" transform="rotate(0,474.5,474.5)"/><circle cx="483.5" cy="123.5" r="4.5" transform="rotate(0,483.5,123.5)"/><circle cx="483.5" cy="141.5" r="4.5" transform="rotate(0,483.5,141.5)"/><circle cx="483.5" cy="150.5" r="4.5" transform="rotate(0,483.5,150.5)"/><circle cx="483.5" cy="159.5" r="4.5" transform="rotate(0,483.5,159.5)"/><circle cx="483.5" cy="168.5" r="4.5" transform="rotate(0,483.5,168.5)"/><circle cx="483.5" cy="177.5" r="4.5" transform="rotate(0,483.5,177.5)"/><circle cx="483.5" cy="204.5" r="4.5" transform="rotate(0,483.5,204.5)"/><circle cx="483.5" cy="249.5" r="4.5" transform="rotate(0,483.5,249.5)"/><circle cx="483.5" cy="258.5" r="4.5" transform="rotate(0,483.5,258.5)"/><circle cx="483.5" cy="276.5" r="4.5" transform="rotate(0,483.5,276.5)"/><circle cx="483.5" cy="285.5" r="4.5" transform="rotate(0,483.5,285.5)"/><circle cx="483.5" cy="303.5" r="4.5" transform="rotate(0,483.5,303.5)"/><circle cx="483.5" cy="312.5" r="4.5" transform="rotate(0,483.5,312.5)"/><circle cx="483.5" cy="339.5" r="4.5" transform="rotate(0,483.5,339.5)"/><circle cx="483.5" cy="357.5" r="4.5" transform="rotate(0,483.5,357.5)"/><circle cx="483.5" cy="393.5" r="4.5" transform="rotate(0,483.5,393.5)"/><circle cx="483.5" cy="402.5" r="4.5" transform="rotate(0,483.5,402.5)"/><circle cx="483.5" cy="411.5" r="4.5" transform="rotate(0,483.5,411.5)"/><circle cx="483.5" cy="429.5" r="4.5" transform="rotate(0,483.5,429.5)"/><circle cx="483.5" cy="447.5" r="4.5" transform="rotate(0,483.5,447.5)"/><circle cx="483.5" cy="456.5" r="4.5" transform="rotate(0,483.5,456.5)"/><circle cx="483.5" cy="474.5" r="4.5" transform="rotate(0,483.5,474.5)"/></clipPath><clipPath id="clip-path-corners-square-color-0-0"><path clip-rule="evenodd" d="M 42.5 11a 31.5 31.5 0 1 0 0.1 0zm 0 9a 22.5 22.5 0 1 1 -0.1 0Z" transform="rotate(0,42.5,42.5)"/></clipPath><clipPath id="clip-path-corners-dot-color-0-0"><rect x="29" y="29" width="27" height="27" transform="rotate(0,42.5,42.5)"/></clipPath><clipPath id="clip-path-corners-square-color-1-0"><path clip-rule="evenodd" d="M 456.5 11a 31.5 31.5 0 1 0 0.1 0zm 0 9a 22.5 22.5 0 1 1 -0.1 0Z" transform="rotate(90,456.5,42.5)"/></clipPath><clipPath id="clip-path-corners-dot-color-1-0"><rect x="443" y="29" width="27" height="27" transform="rotate(90,456.5,42.5)"/></clipPath><clipPath id="clip-path-corners-square-color-0-1"><path clip-rule="evenodd" d="M 42.5 425a 31.5 31.5 0 1 0 0.1 0zm 0 9a 22.5 22.5 0 1 1 -0.1 0Z" transform="rotate(-90,42.5,456.5)"/></clipPath><clipPath id="clip-path-corners-dot-color-0-1"><rect x="29" y="443" width="27" height="27" transform="rotate(-90,42.5,456.5)"/></clipPath></defs><rect x="0" y="0" height="500" width="500" clip-path="url('#clip-path-background-color')" fill="#fff"/><rect x="0" y="0" height="500" width="500" clip-path="url('#clip-path-dot-color')" fill="#000000"/><rect x="11" y="11" height="63" width="63" clip-path="url('#clip-path-corners-square-color-0-0')" fill="#000000"/><rect x="29" y="29" height="27" width="27" clip-path="url('#clip-path-corners-dot-color-0-0')" fill="#000000"/><rect x="425" y="11" height="63" width="63" clip-path="url('#clip-path-corners-square-color-1-0')" fill="#000000"/><rect x="443" y="29" height="27" width="27" clip-path="url('#clip-path-corners-dot-color-1-0')" fill="#000000"/><rect x="11" y="425" height="63" width="63" clip-path="url('#clip-path-corners-square-color-0-1')" fill="#000000"/><rect x="29" y="443" height="27" width="27" clip-path="url('#clip-path-corners-dot-color-0-1')" fill="#000000"/></svg>